<?xml version="1.0" standalone="no"?>
<!DOCTYPE svg PUBLIC "-//W3C//DTD SVG 1.1//EN" "http://www.w3.org/Graphics/SVG/1.1/DTD/svg11.dtd" >
<svg xmlns="http://www.w3.org/2000/svg" xmlns:xlink="http://www.w3.org/1999/xlink" version="1.1">
<metadata>
Created by FontForge 20170731 at Fri Oct  5 17:49:59 2012
 By Aleksey,,,
Copyright (c) 2012 by Moinzek. All rights reserved.
</metadata>
<defs>
<font id="Coco-Regular" horiz-adv-x="327" >
  <font-face 
    font-family="Coco"
    font-weight="400"
    font-stretch="normal"
    units-per-em="1000"
    panose-1="0 0 0 0 0 0 0 0 0 0"
    ascent="750"
    descent="-250"
    x-height="571"
    cap-height="858"
    bbox="-1 -286 572 1071"
    underline-thickness="50"
    underline-position="-199"
    unicode-range="U+0002-2122"
  />
<missing-glyph horiz-adv-x="500" 
d="M125 63h250v625h-250v-625zM63 0v750h375v-750h-375z" />
    <glyph glyph-name=".notdef" horiz-adv-x="500" 
d="M125 63h250v625h-250v-625zM63 0v750h375v-750h-375z" />
    <glyph glyph-name=".null" horiz-adv-x="0" 
 />
    <glyph glyph-name="nonmarkingreturn" horiz-adv-x="333" 
 />
    <glyph glyph-name="uni0002" 
d="M284 71q0 32 -18 50t-36 20l-18 2h-142q-3 0 -7.5 0.5t-17 4.5t-22 10.5t-17 21t-7.5 34.5h142q6 0 15.5 -1t34 -8.5t43.5 -21t34.5 -43t15.5 -69.5zM212 71q3 0 8 -0.5t17 -4.5t21.5 -10.5t17.5 -21t8 -34.5v-142h-72v213z" />
    <glyph glyph-name="space" unicode=" " horiz-adv-x="250" 
 />
    <glyph glyph-name="exclam" unicode="!" horiz-adv-x="113" 
d="M36 71q15 0 25.5 -10.5t10.5 -24.5q0 -15 -10.5 -25.5t-25.5 -10.5t-25.5 10.5t-10.5 25.5q0 14 10.5 24.5t25.5 10.5zM0 786q0 32 18 49.5t36 19.5l18 2v-643q0 -32 -18 -49.5t-36 -19.5l-18 -2v643z" />
    <glyph glyph-name="quotedbl" unicode="&#x22;" horiz-adv-x="257" 
d="M0 857q3 0 7.5 -0.5t17 -4.5t22 -10.5t17 -21t7.5 -34.5v-72q-3 0 -7.5 0.5t-17 4.5t-22 10.5t-17 21.5t-7.5 35v71zM143 857q3 0 7.5 -0.5t17 -4.5t22 -10.5t17 -21t7.5 -34.5v-72q-3 0 -7.5 0.5t-17 4.5t-22 10.5t-17 21.5t-7.5 35v71z" />
    <glyph glyph-name="numbersign" unicode="#" horiz-adv-x="389" 
d="M286 214q32 0 50 -18t20 -36l2 -17h-72v-72q0 -32 -17.5 -49.5t-35.5 -19.5l-18 -2v143h-72v-72q0 -32 -17.5 -49.5t-35.5 -19.5l-18 -2v143q-32 0 -49.5 17.5t-19.5 35.5l-2 18h71v143q-32 0 -49.5 18t-19.5 36l-2 18h71v71q0 32 17.5 49.5t35.5 19.5l18 2v-142h72v71
q0 32 18 49.5t35 19.5l18 2v-142q32 0 50 -18t20 -36l2 -18h-72v-143zM143 214h72v143h-72v-143z" />
    <glyph glyph-name="dollar" unicode="$" horiz-adv-x="317" 
d="M154 284q18 -2 36 -8t42 -20t38.5 -43.5t14.5 -70.5t-14.5 -70.5t-38.5 -43.5t-42 -20t-36 -8v-71h-23v71q-18 2 -36 8t-42 20t-38.5 43.5t-14.5 70.5q32 0 49.5 -17.5t19.5 -35.5l2 -18q0 -60 60 -71v286q-18 2 -36 7.5t-41.5 19.5t-38.5 44t-15 71q0 33 10.5 59
t25 40.5t34.5 24.5t33.5 13t27.5 5v72h23v-72q14 -2 27.5 -5t33.5 -13t34.5 -24.5t25 -40.5t10.5 -59q-32 0 -49.5 18t-19.5 36l-2 17q0 61 -60 70v-285zM71 356q0 -59 60 -70v283q-60 -9 -60 -70v-143zM214 71v142q0 60 -60 71v-284q60 11 60 71z" />
    <glyph glyph-name="percent" unicode="%" horiz-adv-x="317" 
d="M215 143q4 0 9.5 -0.5t17 -4.5t21 -11t16.5 -21.5t7 -34.5q0 -19 -7 -33.5t-16.5 -21.5t-21 -11t-17 -4.5t-9.5 -0.5q5 0 11.5 1.5t15 10.5t8.5 24v71q0 15 -8.5 24t-15 10.5t-11.5 1.5zM214 143q-5 0 -11.5 -1.5t-15 -10.5t-8.5 -24v-71q0 -15 8.5 -24t15 -10.5
t11.5 -1.5q-4 0 -9.5 0.5t-17 4.5t-21 11t-16.5 21.5t-7 33.5q0 20 7 34.5t16.5 21.5t21 11t17 4.5t9.5 0.5zM72 429q5 0 11.5 1.5t15 10t8.5 23.5v72q0 15 -8.5 23.5t-15 10t-11.5 1.5q4 0 9.5 -0.5t17 -4.5t21 -11t16.5 -21.5t7 -33.5t-7 -33.5t-16.5 -21.5t-21 -11
t-17 -4.5t-9.5 -0.5zM71 429q-4 0 -9.5 0.5t-17 4.5t-21 11t-16.5 21.5t-7 33.5t7 33.5t16.5 21.5t21 11t17 4.5t9.5 0.5q-5 0 -11.5 -1.5t-15 -10t-8.5 -23.5v-72q0 -15 8.5 -23.5t15 -10t11.5 -1.5zM0 143q0 6 1 15.5t8.5 34t21 43.5t43 34.5t69.5 15.5q-32 0 -50 -18
t-20 -36l-2 -18v-143q0 -3 -0.5 -7.5t-4.5 -17t-10.5 -22t-21 -17t-34.5 -7.5v143zM214 500q0 32 18 49.5t36 19.5l18 2v-142q0 -6 -1 -15.5t-8.5 -34t-21 -43.5t-43 -34.5t-69.5 -15.5q32 0 49.5 18t19.5 36l2 17v143z" />
    <glyph glyph-name="ampersand" unicode="&#x26;" horiz-adv-x="380" 
d="M212 143q0 6 1 15.5t8.5 34t21 43.5t43 34.5t69.5 15.5q-32 0 -49.5 -18t-19.5 -36l-2 -18v-71q0 -6 -1 -15.5t-8.5 -34t-21 -43.5t-43 -34.5t-69.5 -15.5q32 0 49.5 18t19.5 36l2 17v72zM70 71q0 -3 0.5 -7.5t4.5 -17t10.5 -22t21 -17t34.5 -7.5q-40 0 -69 14.5
t-42.5 35.5t-21 42.5t-8.5 35.5l-1 15v143q0 6 1 15.5t8.5 34t21 43.5t42.5 34.5t69 15.5q-32 0 -49.5 -18t-19.5 -36l-2 -18v-286zM284 571q0 -6 -1 -15.5t-8.5 -34t-21 -43t-43 -34t-69.5 -15.5q32 0 49.5 17.5t19.5 35.5l2 18v286q0 3 -0.5 7.5t-4.5 17t-10.5 22t-21 17
t-34.5 7.5q40 0 69.5 -14.5t43 -35.5t21 -42.5t8.5 -36.5l1 -14v-143zM70 500q0 -3 0.5 -7.5t4.5 -17t10.5 -22t21 -17t34.5 -7.5q-40 0 -69 14.5t-42.5 35.5t-21 42t-8.5 35l-1 15v143q0 6 1 15.5t8.5 34t21 43.5t42.5 34.5t69 15.5q-32 0 -49.5 -17.5t-19.5 -35.5l-2 -18
v-286z" />
    <glyph glyph-name="quotesingle" unicode="'" horiz-adv-x="114" 
d="M0 857q3 0 7.5 -0.5t17 -4.5t22 -10.5t17 -21t7.5 -34.5v-72q-3 0 -7.5 0.5t-17 4.5t-22 10.5t-17 21.5t-7.5 35v71z" />
    <glyph glyph-name="parenleft" unicode="(" horiz-adv-x="143" 
d="M71 71q0 -3 0.5 -7.5t4.5 -17t10.5 -22t21.5 -17t35 -7.5q-40 0 -69.5 14.5t-43 35.5t-21 42.5t-8.5 35.5l-1 15v571q0 6 1 15.5t8.5 34t21 43.5t43 34.5t69.5 15.5q-32 0 -50 -17.5t-20 -35.5l-2 -18v-715z" />
    <glyph glyph-name="parenright" unicode=")" horiz-adv-x="184" 
d="M0 857q40 0 69.5 -14.5t43 -35.5t21 -42.5t8.5 -36.5l1 -14v-571q0 -6 -1 -15.5t-8.5 -34t-21 -43.5t-43 -34.5t-69.5 -15.5q32 0 49.5 18t19.5 36l2 17v715q0 3 -0.5 7.5t-4.5 17t-10.5 22t-21 17t-34.5 7.5z" />
    <glyph glyph-name="asterisk" unicode="*" horiz-adv-x="188" 
d="M107 750q4 0 10 -1t16 -10t10 -25q-12 0 -22.5 3t-17.5 7.5t-12.5 11t-9 12.5t-5.5 13t-3 11.5t-1 8.5l-1 4l1 -3q0 -3 1 -5.5t2.5 -6.5t4 -7.5t6 -6.5t9 -4.5t12.5 -1.5zM0 714q0 31 18.5 49t31.5 20.5t21 2.5q-5 0 -11.5 -1.5t-15 -10.5t-8.5 -24q0 -4 -1 -10t-10 -16
t-25 -10zM0 857q19 0 33.5 -7t21.5 -16.5t11 -21t4.5 -17t0.5 -9.5q0 5 -1.5 11.5t-10 15t-23.5 8.5q-4 0 -10 1t-16 10t-10 25zM143 857q0 -19 -7 -33.5t-16.5 -21.5t-21 -11t-17 -4.5t-9.5 -0.5q5 0 11.5 1.5t15 10t8.5 23.5q0 4 1 10t10 16t25 10z" />
    <glyph glyph-name="plus" unicode="+" horiz-adv-x="313" 
d="M286 315v-58h-114v-114h-57v114h-114v58h114v114h57v-114h114z" />
    <glyph glyph-name="comma" unicode="," horiz-adv-x="183" 
d="M0 -70q32 0 49.5 17.5t19.5 35.5l2 18q0 3 0.5 7.5t4.5 17t10.5 22t21.5 17t35 7.5q0 -6 -1 -15.5t-8.5 -34t-21 -43t-43 -34t-69.5 -15.5z" />
    <glyph glyph-name="hyphen" unicode="-" horiz-adv-x="330" 
d="M0 257v57h286v-57h-286z" />
    <glyph glyph-name="period" unicode="." horiz-adv-x="113" 
d="M72 35q0 -15 -10.5 -25t-25.5 -10t-25.5 10t-10.5 25t10.5 25.5t25.5 10.5t25.5 -10.5t10.5 -25.5z" />
    <glyph glyph-name="slash" unicode="/" horiz-adv-x="241" 
d="M0 286q0 6 1 15.5t8.5 34t21 43.5t43 34.5t69.5 15.5q-32 0 -50 -18t-20 -36l-2 -18v-286q0 -3 -0.5 -7.5t-4.5 -17t-10.5 -22t-21 -17t-34.5 -7.5v286zM143 786q0 3 0.5 7.5t4.5 17t10.5 22t21 17t34.5 7.5v-286q0 -6 -1 -15.5t-8.5 -34t-21 -43t-43 -34t-69.5 -15.5
q32 0 50 17.5t20 35.5l2 18v286z" />
    <glyph glyph-name="zero" unicode="0" horiz-adv-x="348" 
d="M93 71q0 -3 0.5 -7.5t4.5 -17t10.5 -22t21 -17t34.5 -7.5q-40 0 -69 14.5t-42.5 35.5t-21 42.5t-8.5 35.5l-1 15v286q0 6 1 15.5t8.5 34t21 43t42.5 34t69 15.5q-32 0 -49.5 -17.5t-19.5 -35.5l-2 -18v-232q36 18 71 18q-32 0 -49.5 -18t-19.5 -36l-2 -18v-143zM164 571
q40 0 69.5 -14.5t43 -35.5t21 -42t8.5 -35l1 -15v0v-286q0 -6 -1 -15.5t-8.5 -34t-21 -43.5t-43 -34.5t-69.5 -15.5q32 0 50 18t20 36l2 17v233q-36 -18 -72 -18q32 0 50 18t20 36l2 17v143q0 3 -0.5 7.5t-4.5 17t-10.5 22t-21.5 17t-35 7.5z" />
    <glyph glyph-name="one" unicode="1" horiz-adv-x="241" 
d="M200 571v-500q0 -3 -0.5 -7.5t-4.5 -17t-10.5 -22t-21 -17t-34.5 -7.5v500q0 3 0.5 7.5t4.5 17t10.5 22t21 17t34.5 7.5z" />
    <glyph glyph-name="two" unicode="2" horiz-adv-x="336" 
d="M93 71q0 -3 0.5 -7.5t4.5 -17t10.5 -22t21 -17t34.5 -7.5q-40 0 -69 14.5t-42.5 35.5t-21 42.5t-8.5 35.5l-1 15v0q0 6 1 15.5t8.5 34t21 43.5t42.5 34.5t69 15.5q-32 0 -49.5 -18t-19.5 -36l-2 -18v-143zM236 71q0 3 0.5 8t4.5 17t10.5 21.5t21 17.5t34.5 8
q0 -6 -1 -15.5t-8.5 -34t-21 -43.5t-43 -34.5t-69.5 -15.5q32 0 50 18t20 36zM93 500q0 -3 -0.5 -7.5t-4.5 -17t-10.5 -22t-21 -17t-34.5 -7.5q0 6 1 15.5t8.5 34t21 43t42.5 34t69 15.5q-32 0 -49.5 -17.5t-19.5 -35.5zM236 500q0 3 -0.5 7.5t-4.5 17t-10.5 22t-21.5 17
t-35 7.5q40 0 69.5 -14.5t43 -35.5t21 -42t8.5 -35l1 -15q0 -6 -1 -15.5t-8.5 -34t-21 -43.5t-43 -34.5t-69.5 -15.5q32 0 50 18t20 36l2 17v143z" />
    <glyph glyph-name="three" unicode="3" horiz-adv-x="344" 
d="M22 429q0 6 1 15.5t8.5 34t21 43t42.5 34t69 15.5q-32 0 -49.5 -17.5t-19.5 -35.5l-2 -18q0 -3 -0.5 -7.5t-4.5 -17t-10.5 -22t-21 -17t-34.5 -7.5zM307 429q0 -6 -1 -15.5t-8.5 -34t-21 -43.5t-43 -34.5t-69.5 -15.5q32 0 50 18t20 36l2 17v143q0 3 -0.5 7.5t-4.5 17
t-10.5 22t-21.5 17t-35 7.5q40 0 69.5 -14.5t43 -35.5t21 -42t8.5 -35zM93 71q0 -3 0.5 -7.5t4.5 -17t10.5 -22t21 -17t34.5 -7.5q-40 0 -69 14.5t-42.5 35.5t-21 42.5t-8.5 35.5l-1 15q32 0 49.5 -18t19.5 -36zM164 286q40 0 69.5 -14.5t43 -35.5t21 -42.5t8.5 -35.5l1 -15
v0q0 -6 -1 -15.5t-8.5 -34t-21 -43.5t-43 -34.5t-69.5 -15.5q32 0 50 18t20 36l2 17v143q0 3 -0.5 8t-4.5 17t-10.5 21.5t-21.5 17.5t-35 8z" />
    <glyph glyph-name="four" unicode="4" 
d="M164 286q40 0 69.5 -14.5t43 -35.5t21 -42.5t8.5 -35.5l1 -15v-72q0 -32 -17.5 -49.5t-35.5 -19.5l-18 -2v214q0 3 -0.5 8t-4.5 17t-10.5 21.5t-21.5 17.5t-35 8zM93 357q0 -3 0.5 -7.5t4.5 -17t10.5 -22t21 -17t34.5 -7.5q-40 0 -69 14.5t-42.5 35.5t-21 42.5t-8.5 35.5
l-1 15v71q0 3 0.5 7.5t4.5 17t10.5 22t21 17t34.5 7.5v-214z" />
    <glyph glyph-name="five" unicode="5" horiz-adv-x="333" 
d="M93 71q0 -3 0.5 -7.5t4.5 -17t10.5 -22t21 -17t34.5 -7.5q-40 0 -69 14.5t-42.5 35.5t-21 42.5t-8.5 35.5l-1 15q32 0 49.5 -18t19.5 -36zM236 500q-3 0 -8 -0.5t-17 -4.5t-21.5 -10.5t-17.5 -21t-8 -34.5q0 40 14.5 69t35.5 42.5t42.5 21t35.5 8.5l15 1
q0 -32 -17.5 -49.5t-35.5 -19.5zM164 286q40 0 69.5 -14.5t43 -35.5t21 -42.5t8.5 -35.5l1 -15q0 -6 -1 -15.5t-8.5 -34t-21 -43.5t-43 -34.5t-69.5 -15.5q32 0 50 18t20 36l2 17v143q0 3 -0.5 8t-4.5 17t-10.5 21.5t-21.5 17.5t-35 8zM164 286q-40 0 -69 14.5t-42.5 35.5
t-21 42.5t-8.5 35.5l-1 15q32 0 49.5 -18t19.5 -36l2 -18q0 -3 0.5 -7.5t4.5 -17t10.5 -22t21 -17t34.5 -7.5z" />
    <glyph glyph-name="six" unicode="6" horiz-adv-x="335" 
d="M236 500q0 3 -0.5 7.5t-4.5 17t-10.5 22t-21.5 17t-35 7.5q40 0 69.5 -14.5t43 -35.5t21 -42t8.5 -35l1 -15q-32 0 -49.5 17.5t-19.5 35.5zM93 71q0 -3 0.5 -7.5t4.5 -17t10.5 -22t21 -17t34.5 -7.5q-40 0 -69 14.5t-42.5 35.5t-21 42.5t-8.5 35.5l-1 15v286q0 6 1 15.5
t8.5 34t21 43t42.5 34t69 15.5q-32 0 -49.5 -17.5t-19.5 -35.5l-2 -18v-429zM164 286q40 0 69.5 -14.5t43 -35.5t21 -42.5t8.5 -35.5l1 -15q0 -6 -1 -15.5t-8.5 -34t-21 -43.5t-43 -34.5t-69.5 -15.5q32 0 50 18t20 36l2 17v143q0 3 -0.5 8t-4.5 17t-10.5 21.5t-21.5 17.5
t-35 8z" />
    <glyph glyph-name="seven" unicode="7" horiz-adv-x="318" 
d="M93 500q-3 0 -7.5 0.5t-17 4.5t-22 10.5t-17 21t-7.5 34.5q6 0 15.5 -1t34 -8.5t43 -21t34 -42.5t15.5 -69q0 32 -18 49.5t-36 19.5zM22 143q0 6 1 15.5t8.5 34t21 43.5t42.5 34.5t69 15.5q-32 0 -49.5 -18t-19.5 -36l-2 -18v-214q-3 0 -7.5 0.5t-17 4.5t-22 10.5t-17 21
t-7.5 34.5v72zM236 357q0 3 0.5 8t4.5 17t10.5 21.5t21 17.5t34.5 8q0 -6 -1 -15.5t-8.5 -34t-21 -43.5t-43 -34.5t-69.5 -15.5q32 0 50 18t20 36z" />
    <glyph glyph-name="eight" unicode="8" horiz-adv-x="344" 
d="M307 429q0 -6 -1 -15.5t-8.5 -34t-21 -43.5t-43 -34.5t-69.5 -15.5q32 0 50 18t20 36l2 17v143q0 3 -0.5 7.5t-4.5 17t-10.5 22t-21.5 17t-35 7.5q40 0 69.5 -14.5t43 -35.5t21 -42t8.5 -35zM164 286q40 0 69.5 -14.5t43 -35.5t21 -42.5t8.5 -35.5l1 -15v0q0 -6 -1 -15.5
t-8.5 -34t-21 -43.5t-43 -34.5t-69.5 -15.5h3h-3q32 0 50 18t20 36l2 17v143q0 3 -0.5 8t-4.5 17t-10.5 21.5t-21.5 17.5t-35 8zM93 357q0 -3 0.5 -7.5t4.5 -17t10.5 -22t21 -17t34.5 -7.5q-40 0 -69 14.5t-42.5 35.5t-21 42.5t-8.5 35.5l-1 15q0 6 1 15.5t8.5 34t21 43
t42.5 34t69 15.5q-32 0 -49.5 -17.5t-19.5 -35.5l-2 -18v-143zM93 71q0 -3 0.5 -7.5t4.5 -17t10.5 -22t21 -17t34.5 -7.5q-40 0 -69 14.5t-42.5 35.5t-21 42.5t-8.5 35.5l-1 15v0q0 6 1 15.5t8.5 34t21 43.5t42.5 34.5t69 15.5q-32 0 -49.5 -18t-19.5 -36l-2 -18v-143z" />
    <glyph glyph-name="nine" unicode="9" horiz-adv-x="348" 
d="M93 71q0 -3 0.5 -7.5t4.5 -17t10.5 -22t21 -17t34.5 -7.5q-40 0 -69 14.5t-42.5 35.5t-21 42.5t-8.5 35.5l-1 15q32 0 49.5 -18t19.5 -36zM164 286q-40 0 -69 14.5t-42.5 35.5t-21 42.5t-8.5 35.5l-1 15q0 6 1 15.5t8.5 34t21 43t42.5 34t69 15.5q-32 0 -49.5 -17.5
t-19.5 -35.5l-2 -18v-143q0 -3 0.5 -7.5t4.5 -17t10.5 -22t21 -17t34.5 -7.5zM164 571q40 0 69.5 -14.5t43 -35.5t21 -42t8.5 -35l1 -15v-286q0 -6 -1 -15.5t-8.5 -34t-21 -43.5t-43 -34.5t-69.5 -15.5q32 0 50 18t20 36l2 17v429q0 3 -0.5 7.5t-4.5 17t-10.5 22t-21.5 17
t-35 7.5z" />
    <glyph glyph-name="colon" unicode=":" horiz-adv-x="110" 
d="M36 71q15 0 25.5 -10.5t10.5 -24.5q0 -15 -10.5 -25.5t-25.5 -10.5t-25.5 10.5t-10.5 25.5q0 14 10.5 24.5t25.5 10.5zM36 500q-15 0 -25.5 10.5t-10.5 25.5q0 14 10.5 24.5t25.5 10.5t25.5 -10.5t10.5 -24.5q0 -15 -10.5 -25.5t-25.5 -10.5z" />
    <glyph glyph-name="semicolon" unicode=";" horiz-adv-x="168" 
d="M74 0q0 3 0.5 7.5t4.5 17t10.5 22t21 17t34.5 7.5q0 -6 -1 -15.5t-8.5 -33.5t-21 -43t-43 -34t-69.5 -15q32 0 50 17.5t20 34.5zM109 500q-15 0 -25 10.5t-10 25.5q0 14 10 24.5t25 10.5t25.5 -10.5t10.5 -24.5q0 -15 -10.5 -25.5t-25.5 -10.5z" />
    <glyph glyph-name="less" unicode="&#x3c;" horiz-adv-x="184" 
d="M143 430v-71l-72 -72l72 -71v-72l-143 143z" />
    <glyph glyph-name="equal" unicode="=" horiz-adv-x="302" 
d="M1 431h285v-57h-285v57zM1 145v57h285v-57h-285z" />
    <glyph glyph-name="greater" unicode="&#x3e;" horiz-adv-x="182" 
d="M0 145v72l70 71l-70 72v71l142 -143z" />
    <glyph glyph-name="question" unicode="?" horiz-adv-x="310" 
d="M72 286q0 6 1 15.5t8.5 34t21 43.5t43 34.5t69.5 15.5q-32 0 -49.5 -18t-19.5 -36l-2 -18v-143q0 -3 -0.5 -7.5t-4.5 -17t-10.5 -22t-21.5 -17t-35 -7.5v143zM144 857q40 0 69.5 -14.5t43 -35.5t21 -42.5t8.5 -36.5l1 -14v-143q0 -6 -1 -15.5t-8.5 -34t-21 -43t-43 -34
t-69.5 -15.5q32 0 49.5 17.5t19.5 35.5l2 18v286q0 3 -0.5 7.5t-4.5 17t-10.5 22t-21 17t-34.5 7.5zM144 857q-32 0 -50 -17.5t-20 -35.5l-2 -18q0 -3 -0.5 -8t-4.5 -17t-10.5 -21.5t-21 -17.5t-34.5 -8q0 6 1 15.5t8.5 34t21 43.5t43 34.5t69.5 15.5zM108 71
q15 0 25.5 -10.5t10.5 -24.5q0 -15 -10.5 -25.5t-25.5 -10.5t-25.5 10.5t-10.5 25.5q0 14 10.5 24.5t25.5 10.5z" />
    <glyph glyph-name="at" unicode="@" horiz-adv-x="468" 
d="M285 571q40 0 69.5 -14.5t43 -35.5t21 -42t8.5 -35l1 -15v-286q0 -6 -1 -15.5t-8.5 -34t-21 -43.5t-43 -34.5t-69.5 -15.5q32 0 49.5 18t19.5 36l2 17v429q0 3 -0.5 7.5t-4.5 17t-10.5 22t-21 17t-34.5 7.5zM71 -70q0 -3 0.5 -8t4.5 -17t10.5 -21.5t21 -17.5t34.5 -8
q-40 0 -69 14.5t-42.5 35.5t-21 42t-8.5 36l-1 14v429q0 6 1 15.5t8.5 34t21 43t42.5 34t69 15.5q-32 0 -49.5 -17.5t-19.5 -35.5l-2 -18v-570zM356 -70q0 3 0.5 7.5t4.5 16.5t10.5 21.5t21.5 17t35 7.5q0 -6 -1 -15.5t-8.5 -34t-21 -43t-43 -34t-69.5 -15.5q32 0 49.5 18
t19.5 36zM214 71q0 -3 0.5 -7.5t4.5 -17t10.5 -22t21 -17t34.5 -7.5q-40 0 -69.5 14.5t-43 35.5t-21 42.5t-8.5 35.5l-1 15v71q0 6 1 15.5t8.5 34t21 43.5t43 34.5t69.5 15.5q-32 0 -49.5 -17.5t-19.5 -35.5l-2 -18v-215z" />
    <glyph glyph-name="A" unicode="A" horiz-adv-x="328" 
d="M73 71q0 -3 0.5 -7.5t4.5 -17t10.5 -22t21 -17t34.5 -7.5q-40 0 -69.5 14.5t-43 35.5t-21 42.5t-8.5 35.5l-1 15v286q0 6 1 15.5t8.5 34t21 43t43 34t69.5 15.5q-32 0 -49.5 -17.5t-19.5 -35.5l-2 -18v-429zM1 714q0 6 1 15.5t8.5 34t21 43.5t43 34.5t69.5 15.5
q-32 0 -49.5 -17.5t-19.5 -35.5l-2 -18q0 -3 -0.5 -8t-4.5 -17t-10.5 -21.5t-21.5 -17.5t-35 -8zM144 857q40 0 69.5 -14.5t43 -35.5t21 -42.5t8.5 -36.5l1 -14v-571q0 -6 -1 -15.5t-8.5 -34t-21 -43.5t-43 -34.5t-69.5 -15.5q32 0 49.5 18t19.5 36l2 17v715q0 3 -0.5 7.5
t-4.5 17t-10.5 22t-21 17t-34.5 7.5z" />
    <glyph glyph-name="B" unicode="B" horiz-adv-x="325" 
d="M141 571q40 0 69.5 -14.5t43 -35.5t21 -42t8.5 -35l1 -15v-286q0 -6 -1 -15.5t-8.5 -34t-21 -43.5t-43 -34.5t-69.5 -15.5q32 0 49.5 18t19.5 36l2 17v429q0 3 -0.5 7.5t-4.5 17t-10.5 22t-21 17t-34.5 7.5zM70 71q0 -3 0.5 -7.5t4.5 -17t10.5 -22t21 -17t34.5 -7.5
q-40 0 -69 14.5t-42.5 35.5t-21 42.5t-8.5 35.5l-1 15v714q3 0 7.5 -0.5t17 -4.5t22 -10.5t17 -21t7.5 -34.5v-715zM212 786q0 3 -0.5 7.5t-4.5 17t-10.5 22t-21 17t-34.5 7.5q40 0 69.5 -14.5t43 -35.5t21 -42.5t8.5 -36.5l1 -14q0 -6 -1 -15.5t-8.5 -34t-21 -43.5
t-43 -34.5t-69.5 -15.5q32 0 49.5 18t19.5 36l2 18v143z" />
    <glyph glyph-name="C" unicode="C" horiz-adv-x="298" 
d="M214 786q0 3 -0.5 7.5t-4.5 17t-10.5 22t-21 17t-34.5 7.5q40 0 69 -14.5t42.5 -35.5t21 -42.5t8.5 -36.5l1 -14q-32 0 -49.5 18t-19.5 36zM71 71q0 -3 0.5 -7.5t4.5 -17t10.5 -22t21.5 -17t35 -7.5q-40 0 -69.5 14.5t-43 35.5t-21 42.5t-8.5 35.5l-1 15v571q0 6 1 15.5
t8.5 34t21 43.5t43 34.5t69.5 15.5q-32 0 -50 -17.5t-20 -35.5l-2 -18v-715zM214 71q0 3 0.5 8t4.5 17t10.5 21.5t21 17.5t34.5 8q0 -6 -1 -15.5t-8.5 -34t-21 -43.5t-42.5 -34.5t-69 -15.5q32 0 49.5 18t19.5 36z" />
    <glyph glyph-name="D" unicode="D" 
d="M143 857q40 0 69 -14.5t42.5 -35.5t21 -42.5t8.5 -36.5l1 -14v-571q0 -6 -1 -15.5t-8.5 -34t-21 -43.5t-42.5 -34.5t-69 -15.5q32 0 49.5 18t19.5 36l2 17v715q0 3 -0.5 7.5t-4.5 17t-10.5 22t-21 17t-34.5 7.5zM0 857q3 0 7.5 -0.5t17 -4.5t22 -10.5t17 -21t7.5 -34.5
v-786h-71v857z" />
    <glyph glyph-name="E" unicode="E" horiz-adv-x="325" 
d="M0 714q0 6 1 15.5t8.5 34t21 43.5t43 34.5t69.5 15.5q-32 0 -50 -17.5t-20 -35.5l-2 -18v-715q0 -3 0.5 -7.5t4.5 -17t10.5 -22t21.5 -17t35 -7.5q-40 0 -69.5 14.5t-43 35.5t-21 42.5t-8.5 35.5l-1 15v571zM285 143q0 -6 -1 -15.5t-8.5 -34t-21 -43.5t-42.5 -34.5
t-69 -15.5q32 0 49.5 18t19.5 36l2 17q0 3 0.5 8t4.5 17t10.5 21.5t21 17.5t34.5 8zM143 286q32 0 49.5 18t19.5 36l2 17v429q0 3 -0.5 7.5t-4.5 17t-10.5 22t-21 17t-34.5 7.5q40 0 69 -14.5t42.5 -35.5t21 -42.5t8.5 -36.5l1 -14v-285q0 -6 -1 -15.5t-8.5 -34t-21 -43.5
t-42.5 -34.5t-69 -15.5z" />
    <glyph glyph-name="F" unicode="F" horiz-adv-x="307" 
d="M2 857q32 0 50 -17.5t20 -35.5l2 -18v-786h-72v857zM216 500q0 -3 0.5 -7.5t4.5 -17t10.5 -22t21.5 -17t35 -7.5q-40 0 -69.5 14.5t-43 35.5t-21 42t-8.5 35l-1 15q32 0 49.5 -17.5t19.5 -35.5zM216 786q0 3 -0.5 7.5t-4.5 17t-10.5 22t-21 17t-34.5 7.5q40 0 69.5 -14.5
t43 -35.5t21 -42.5t8.5 -36.5l1 -14q-32 0 -50 18t-20 36z" />
    <glyph glyph-name="G" unicode="G" horiz-adv-x="326" 
d="M214 429q3 0 7.5 -0.5t17 -4.5t22 -10.5t17 -21.5t7.5 -35v-214q0 -6 -1 -15.5t-8.5 -34t-21 -43.5t-42.5 -34.5t-69 -15.5q32 0 49.5 18t19.5 36l2 17v358zM143 571q6 0 15.5 -1t34 -8.5t43 -21t34 -42.5t15.5 -69q0 32 -17.5 49.5t-35.5 19.5l-18 2q-3 0 -7.5 0.5
t-17 4.5t-22 10.5t-17 21t-7.5 34.5zM214 786q0 3 -0.5 7.5t-4.5 17t-10.5 22t-21 17t-34.5 7.5q40 0 69 -14.5t42.5 -35.5t21 -42.5t8.5 -36.5l1 -14q-32 0 -49.5 18t-19.5 36zM71 71q0 -3 0.5 -7.5t4.5 -17t10.5 -22t21.5 -17t35 -7.5q-40 0 -69.5 14.5t-43 35.5t-21 42.5
t-8.5 35.5l-1 15v571q0 6 1 15.5t8.5 34t21 43.5t43 34.5t69.5 15.5q-32 0 -50 -17.5t-20 -35.5l-2 -18v-715z" />
    <glyph glyph-name="H" unicode="H" horiz-adv-x="330" 
d="M74 786v-232q35 17 71 17q-32 0 -49.5 -17.5t-19.5 -35.5l-2 -18v-500h-72v857q3 0 8 -0.5t17 -4.5t21.5 -10.5t17.5 -21t8 -34.5zM216 786q0 32 18 49.5t36 19.5l18 2v-857h-72v589q-35 -18 -71 -18q32 0 49.5 18t19.5 36l2 18v143z" />
    <glyph glyph-name="I" unicode="I" horiz-adv-x="114" 
d="M72 858v-857h-72v786q0 3 0.5 7.5t4.5 17t10.5 22t21.5 17t35 7.5z" />
    <glyph glyph-name="J" unicode="J" horiz-adv-x="325" 
d="M70 71q0 -3 0.5 -7.5t4.5 -17t10.5 -22t21 -17t34.5 -7.5q-40 0 -69 14.5t-42.5 35.5t-21 42.5t-8.5 35.5l-1 15q32 0 49.5 -18t19.5 -36zM212 786q0 32 18 49.5t36 19.5l18 2v-714q0 -6 -1 -15.5t-8.5 -34t-21 -43.5t-43 -34.5t-69.5 -15.5q32 0 49.5 18t19.5 36l2 17
v715z" />
    <glyph glyph-name="K" unicode="K" 
d="M72 786v-375q36 18 71 18q-32 0 -49.5 -18t-19.5 -36l-2 -18v-357h-71v857q3 0 7.5 -0.5t17 -4.5t22 -10.5t17 -21t7.5 -34.5zM286 571q0 -6 -1 -15.5t-8.5 -34t-21 -43t-43 -34t-69.5 -15.5q32 0 50 17.5t20 35.5l2 18v357q3 0 7.5 -0.5t17 -4.5t22 -10.5t17 -21
t7.5 -34.5v-215zM215 357q0 3 -0.5 8t-4.5 17t-10.5 21.5t-21.5 17.5t-35 8q40 0 69.5 -14.5t43 -35.5t21 -42.5t8.5 -36.5l1 -14v-286h-71v357z" />
    <glyph glyph-name="L" unicode="L" horiz-adv-x="293" 
d="M71 71q0 -3 0.5 -7.5t4.5 -17t10.5 -22t21.5 -17t35 -7.5q-40 0 -69.5 14.5t-43 35.5t-21 42.5t-8.5 35.5l-1 15v714q3 0 7.5 -0.5t17 -4.5t22 -10.5t17 -21t7.5 -34.5v-715zM214 71q0 3 0.5 8t4.5 17t10.5 21.5t21 17.5t34.5 8q0 -6 -1 -15.5t-8.5 -34t-21 -43.5
t-42.5 -34.5t-69 -15.5q32 0 49.5 18t19.5 36z" />
    <glyph glyph-name="M" unicode="M" horiz-adv-x="542" 
d="M143 857q29 0 55.5 -11t39.5 -22l12 -11q5 5 13.5 12.5t36.5 19.5t57 12q-32 0 -49.5 -17.5t-19.5 -35.5l-2 -18v-786h-72v786q0 3 -0.5 7.5t-4.5 17t-10.5 22t-21 17t-34.5 7.5zM357 857q40 0 69.5 -14.5t43 -35.5t21 -42.5t8.5 -36.5l1 -14v-714h-71v786q0 3 -0.5 7.5
t-4.5 17t-10.5 22t-21.5 17t-35 7.5zM0 857q38 0 57 -26q40 26 86 26q-32 0 -50 -17.5t-20 -35.5l-2 -18v-786h-71v714v1v142z" />
    <glyph glyph-name="N" unicode="N" horiz-adv-x="330" 
d="M145 857q40 0 69.5 -14.5t43 -35.5t21 -42.5t8.5 -36.5l1 -14v-714h-72v786q0 3 -0.5 7.5t-4.5 17t-10.5 22t-21 17t-34.5 7.5zM2 857q38 0 57 -26q40 26 86 26q-32 0 -49.5 -17.5t-19.5 -35.5l-2 -18v-786h-72v714v1v142z" />
    <glyph glyph-name="O" unicode="O" 
d="M143 857q40 0 69 -14.5t42.5 -35.5t21 -42.5t8.5 -36.5l1 -14v-571q0 -6 -1 -15.5t-8.5 -34t-21 -43.5t-42.5 -34.5t-69 -15.5q32 0 49.5 18t19.5 36l2 17v715q0 3 -0.5 7.5t-4.5 17t-10.5 22t-21 17t-34.5 7.5zM71 71q0 -3 0.5 -7.5t4.5 -17t10.5 -22t21.5 -17t35 -7.5
q-40 0 -69.5 14.5t-43 35.5t-21 42.5t-8.5 35.5l-1 15v571q0 6 1 15.5t8.5 34t21 43.5t43 34.5t69.5 15.5q-32 0 -50 -17.5t-20 -35.5l-2 -18v-715z" />
    <glyph glyph-name="P" unicode="P" horiz-adv-x="324" 
d="M0 857q32 0 49.5 -17.5t19.5 -35.5l2 -18v-786h-71v857zM143 857q40 0 69.5 -14.5t43 -35.5t21 -42.5t8.5 -36.5l1 -14v-285q0 -6 -1 -15.5t-8.5 -34t-21 -43.5t-43 -34.5t-69.5 -15.5q32 0 49.5 18t19.5 36l2 17v429q0 3 -0.5 7.5t-4.5 17t-10.5 22t-21 17t-34.5 7.5z
" />
    <glyph glyph-name="Q" unicode="Q" horiz-adv-x="326" 
d="M178 -34q4 0 10 -1t16 -10t10 -25q-19 0 -33.5 7t-21.5 16.5t-11 21t-4.5 17t-0.5 8.5q0 -4 1.5 -10.5t10 -15t23.5 -8.5zM142 858q40 0 69.5 -14.5t43 -36t21 -42.5t8.5 -35l1 -15v-572q0 -6 -1 -15.5t-8.5 -34t-21 -43.5t-43 -34.5t-69.5 -15.5q32 0 50 18t20 36l2 18
v714q0 3 -0.5 8t-4.5 17t-10.5 21.5t-21.5 17.5t-35 8zM71 72q0 -3 0.5 -8t4.5 -17t10.5 -21.5t21 -17.5t34.5 -8q-40 0 -69 14.5t-42.5 35.5t-21 42.5t-8.5 35.5l-1 15v572q0 6 1 15.5t8.5 34t21 43.5t42.5 34.5t69 15.5q-32 0 -49.5 -18t-19.5 -36l-2 -18v-714z" />
    <glyph glyph-name="R" unicode="R" 
d="M0 857q32 0 49.5 -17.5t19.5 -35.5l2 -18v-786h-71v857zM143 857q40 0 69.5 -14.5t43 -35.5t21 -42.5t8.5 -36.5l1 -14v-285q0 -6 -1 -15.5t-8.5 -34t-21 -43.5t-43 -34.5t-69.5 -15.5q32 0 49.5 18t19.5 36l2 17v429q0 3 -0.5 7.5t-4.5 17t-10.5 22t-21 17t-34.5 7.5z
M143 286q40 0 69.5 -14.5t43 -35.5t21 -42.5t8.5 -35.5l1 -15v-143h-72v214q0 3 -0.5 8t-4.5 17t-10.5 21.5t-21 17.5t-34.5 8z" />
    <glyph glyph-name="S" unicode="S" horiz-adv-x="326" 
d="M214 786q0 3 -0.5 7.5t-4.5 17t-10.5 22t-21 17t-34.5 7.5q40 0 69 -14.5t42.5 -35.5t21 -42.5t8.5 -36.5l1 -14q-32 0 -49.5 18t-19.5 36zM143 429q40 0 69 -14.5t42.5 -35.5t21 -42.5t8.5 -36.5l1 -14v-143q0 -6 -1 -15.5t-8.5 -34t-21 -43.5t-42.5 -34.5t-69 -15.5
q32 0 49.5 18t19.5 36l2 17v286q0 3 -0.5 8t-4.5 17t-10.5 21.5t-21 17.5t-34.5 8zM71 71q0 -3 0.5 -7.5t4.5 -17t10.5 -22t21.5 -17t35 -7.5q-40 0 -69.5 14.5t-43 35.5t-21 42.5t-8.5 35.5l-1 15q32 0 49.5 -18t19.5 -36zM71 500q0 -3 0.5 -7.5t4.5 -17t10.5 -22t21.5 -17
t35 -7.5q-40 0 -69.5 14.5t-43 35.5t-21 42t-8.5 35l-1 15v143q0 6 1 15.5t8.5 34t21 43.5t43 34.5t69.5 15.5q-32 0 -50 -17.5t-20 -35.5l-2 -18v-286z" />
    <glyph glyph-name="T" unicode="T" horiz-adv-x="285" 
d="M0 714q0 40 14.5 69.5t35.5 43t42.5 21t35.5 8.5l15 1q0 -32 -18 -49.5t-36 -19.5l-18 -2q-3 0 -7.5 -0.5t-17 -4.5t-22 -10.5t-17 -21.5t-7.5 -35zM214 786q3 0 7.5 0.5t17 4.5t22 10.5t17 21t7.5 34.5q0 -25 -7.5 -47.5t-17.5 -36.5t-20.5 -24t-17.5 -15l-8 -4v-730
h-71v714q0 32 17.5 50t35.5 20z" />
    <glyph glyph-name="U" unicode="U" horiz-adv-x="329" 
d="M215 786q0 3 0.5 7.5t4.5 17t10.5 22t21 17t34.5 7.5v-857h-71v786zM72 71q0 -3 0.5 -7.5t4.5 -17t10.5 -22t21 -17t34.5 -7.5q-40 0 -69.5 14.5t-43 35.5t-21 42.5t-8.5 35.5l-1 15v714q32 0 50 -17.5t20 -35.5l2 -18v-715z" />
    <glyph glyph-name="V" unicode="V" horiz-adv-x="325" 
d="M70 71q0 -3 0.5 -7.5t4.5 -17t10.5 -22t21 -17t34.5 -7.5q-40 0 -69 14.5t-42.5 35.5t-21 42.5t-8.5 35.5l-1 15v714q32 0 49.5 -17.5t19.5 -35.5l2 -18v-715zM212 786q0 3 0.5 7.5t4.5 17t10.5 22t21.5 17t35 7.5v-714q0 -6 -1 -15.5t-8.5 -34t-21 -43.5t-43 -34.5
t-69.5 -15.5q32 0 49.5 18t19.5 36l2 17v715z" />
    <glyph glyph-name="W" unicode="W" horiz-adv-x="541" 
d="M428 786q0 3 0.5 7.5t4.5 17t10.5 22t21.5 17t35 7.5v-714q0 -6 -1 -15.5t-8.5 -34t-21 -43.5t-43 -34.5t-69.5 -15.5q32 0 49.5 18t19.5 36l2 17v715zM71 71q0 -3 0.5 -7.5t4.5 -17t10.5 -22t21.5 -17t35 -7.5q-40 0 -69.5 14.5t-43 35.5t-21 42.5t-8.5 35.5l-1 15v714
q32 0 49.5 -17.5t19.5 -35.5l2 -18v-715zM285 71q0 -3 0.5 -7.5t4.5 -17t10.5 -22t21.5 -17t35 -7.5q-29 0 -55.5 11t-39.5 22l-12 11q-5 -5 -14 -12.5t-37 -19.5t-56 -12q32 0 49.5 18t19.5 36l2 17v500h71v-500z" />
    <glyph glyph-name="X" unicode="X" 
d="M214 786q0 3 0.5 7.5t4.5 17t10.5 22t21.5 17t35 7.5v-143q0 -6 -1 -15.5t-8.5 -34t-21 -43.5t-43 -34.5t-69.5 -15.5q32 0 49.5 18t19.5 36l2 18v143zM0 429q0 6 1 15.5t8.5 34t21 43t43 34t69.5 15.5q-32 0 -50 -17.5t-20 -35.5l-2 -18v-500h-71v429zM143 571
q40 0 69.5 -14.5t43 -35.5t21 -42t8.5 -35l1 -15v-429h-72v500q0 3 -0.5 7.5t-4.5 17t-10.5 22t-21 17t-34.5 7.5zM143 571q-40 0 -69.5 14.5t-43 35.5t-21 42.5t-8.5 36.5l-1 14v143q32 0 49.5 -17.5t19.5 -35.5l2 -18v-143q0 -3 0.5 -8t4.5 -17t10.5 -21.5t21.5 -17.5
t35 -8z" />
    <glyph glyph-name="Y" unicode="Y" 
d="M143 286q-40 0 -69.5 14.5t-43 35.5t-21 42.5t-8.5 35.5l-1 15v428q32 0 49.5 -17.5t19.5 -35.5l2 -18v-429q0 -3 0.5 -7.5t4.5 -17t10.5 -22t21.5 -17t35 -7.5zM71 71q0 -3 0.5 -7.5t4.5 -17t10.5 -22t21.5 -17t35 -7.5q-40 0 -69.5 14.5t-43 35.5t-21 42.5t-8.5 35.5
l-1 15q32 0 49.5 -18t19.5 -36zM214 786q0 3 0.5 7.5t4.5 17t10.5 22t21 17t34.5 7.5v-714q0 -6 -1 -15.5t-8.5 -34t-21 -43.5t-42.5 -34.5t-69 -15.5q32 0 49.5 18t19.5 36l2 17v715z" />
    <glyph glyph-name="Z" unicode="Z" horiz-adv-x="300" 
d="M215 71q0 3 0.5 8t4.5 17t10.5 21.5t21 17.5t34.5 8q0 -6 -1 -15.5t-8.5 -34t-21 -43.5t-43 -34.5t-69.5 -15.5q32 0 50 18t20 36zM72 786q-3 0 -7.5 0.5t-17 4.5t-22 10.5t-17 21t-7.5 34.5q6 0 15.5 -1t34 -8.5t43 -21t34 -43t15.5 -69.5q0 32 -17.5 50t-35.5 20z
M1 429q0 6 1 15.5t8.5 34t21 43t42.5 34t69 15.5q-32 0 -49.5 -17.5t-19.5 -35.5l-2 -18v-500h-71v429zM286 714q0 -6 -1 -15.5t-8.5 -34t-21 -43.5t-43 -34.5t-69.5 -15.5q32 0 50 18t20 36l2 18q0 3 0.5 7.5t4.5 17t10.5 22t21 17t34.5 7.5z" />
    <glyph glyph-name="bracketleft" unicode="[" horiz-adv-x="183" 
d="M143 857v-71h-72v-715h72v-71h-143v857h143z" />
    <glyph glyph-name="backslash" unicode="\" horiz-adv-x="257" 
d="M71 429q40 0 69.5 -14.5t43 -35.5t21 -42.5t8.5 -36.5l1 -14v-286q-32 0 -49.5 18t-19.5 36l-2 17v286q0 3 -0.5 8t-4.5 17t-10.5 21.5t-21.5 17.5t-35 8zM71 500q0 -3 0.5 -7.5t4.5 -17t10.5 -22t21.5 -17t35 -7.5q-40 0 -69.5 14.5t-43 35.5t-21 42t-8.5 35l-1 15v286
q32 0 49.5 -17.5t19.5 -35.5l2 -18v-286z" />
    <glyph glyph-name="bracketright" unicode="]" horiz-adv-x="185" 
d="M0 0v71h71v715h-71v71h143v-857h-143z" />
    <glyph glyph-name="asciicircum" unicode="^" horiz-adv-x="181" 
d="M143 789h-36l-35 35l-36 -35h-36l72 71z" />
    <glyph glyph-name="underscore" unicode="_" horiz-adv-x="286" 
d="M286 1v-71h-286v71h286z" />
    <glyph glyph-name="grave" unicode="`" horiz-adv-x="188" 
d="M143 714q-40 0 -69.5 14.5t-43 36t-21 42.5t-8.5 35l-1 15q32 0 49.5 -17.5t19.5 -35.5l2 -18q0 -3 0.5 -8t4.5 -17t10.5 -21.5t21.5 -17.5t35 -8z" />
    <glyph glyph-name="a" unicode="a" horiz-adv-x="326" 
d="M71 71q0 -3 0.5 -7.5t4.5 -17t10.5 -22t21.5 -17t35 -7.5q-40 0 -69.5 14.5t-43 35.5t-21 42.5t-8.5 35.5l-1 15v71q0 6 1 15.5t8.5 34t21 43.5t43 34.5t69.5 15.5q-32 0 -50 -17.5t-20 -35.5l-2 -18v-215zM143 571q40 0 69 -14.5t42.5 -35.5t21 -42t8.5 -35l1 -15v-286
q0 -6 -1 -15.5t-8.5 -34t-21 -43.5t-42.5 -34.5t-69 -15.5q32 0 49.5 18t19.5 36l2 17v429q0 3 -0.5 7.5t-4.5 17t-10.5 22t-21 17t-34.5 7.5zM0 429q0 6 1 15.5t8.5 34t21 43t43 34t69.5 15.5q-32 0 -50 -17.5t-20 -35.5l-2 -18q0 -3 -0.5 -7.5t-4.5 -17t-10.5 -22t-21 -17
t-34.5 -7.5z" />
    <glyph glyph-name="b" unicode="b" horiz-adv-x="325" 
d="M143 571q40 0 69 -14.5t42.5 -35.5t21 -42t8.5 -35l1 -15v-286q0 -6 -1 -15.5t-8.5 -34t-21 -43.5t-42.5 -34.5t-69 -15.5q32 0 49.5 18t19.5 36l2 17v429q0 3 -0.5 7.5t-4.5 17t-10.5 22t-21 17t-34.5 7.5zM71 71q0 -3 0.5 -7.5t4.5 -17t10.5 -22t21.5 -17t35 -7.5
q-40 0 -69.5 14.5t-43 35.5t-21 42.5t-8.5 35.5l-1 15v714q3 0 7.5 -0.5t17 -4.5t22 -10.5t17 -21t7.5 -34.5v-715z" />
    <glyph glyph-name="c" unicode="c" horiz-adv-x="306" 
d="M215 500q0 3 -0.5 7.5t-4.5 17t-10.5 22t-21 17t-34.5 7.5q40 0 69.5 -14.5t43 -35.5t21 -42t8.5 -35l1 -15q-32 0 -50 17.5t-20 35.5zM73 71q0 -3 0.5 -7.5t4.5 -17t10.5 -22t21 -17t34.5 -7.5q-40 0 -69.5 14.5t-43 35.5t-21 42.5t-8.5 35.5l-1 15v286q0 6 1 15.5
t8.5 34t21 43t43 34t69.5 15.5q-32 0 -49.5 -17.5t-19.5 -35.5l-2 -18v-429zM215 71q0 3 0.5 8t4.5 17t10.5 21.5t21.5 17.5t35 8q0 -6 -1 -15.5t-8.5 -34t-21 -43.5t-43 -34.5t-69.5 -15.5q32 0 49.5 18t19.5 36z" />
    <glyph glyph-name="d" unicode="d" horiz-adv-x="328" 
d="M73 71q0 -3 0.5 -7.5t4.5 -17t10.5 -22t21 -17t34.5 -7.5q-40 0 -69.5 14.5t-43 35.5t-21 42.5t-8.5 35.5l-1 15v286q0 6 1 15.5t8.5 34t21 43t43 34t69.5 15.5q-32 0 -49.5 -17.5t-19.5 -35.5l-2 -18v-429zM215 786q0 32 18 49.5t36 19.5l18 2v-714q0 -6 -1 -15.5
t-8.5 -34t-21 -43.5t-43 -34.5t-69.5 -15.5q32 0 49.5 18t19.5 36l2 17v715z" />
    <glyph glyph-name="e" unicode="e" horiz-adv-x="314" 
d="M0 429q0 6 1 15.5t8.5 34t21 43t43 34t69.5 15.5q-32 0 -50 -17.5t-20 -35.5l-2 -18v-429q0 -3 0.5 -7.5t4.5 -17t10.5 -22t21.5 -17t35 -7.5q-40 0 -69.5 14.5t-43 35.5t-21 42.5t-8.5 35.5l-1 15v286zM285 143q0 -6 -1 -15.5t-8.5 -34t-21 -43.5t-42.5 -34.5t-69 -15.5
q32 0 49.5 18t19.5 36l2 17q0 3 0.5 8t4.5 17t10.5 21.5t21 17.5t34.5 8zM143 571q40 0 69 -14.5t42.5 -35.5t21 -42t8.5 -35l1 -15v0q0 -6 -1 -15.5t-8.5 -34t-21 -43.5t-42.5 -34.5t-69 -15.5q32 0 49.5 18t19.5 36l2 17v143q0 3 -0.5 7.5t-4.5 17t-10.5 22t-21 17
t-34.5 7.5z" />
    <glyph glyph-name="f" unicode="f" horiz-adv-x="314" 
d="M0 715q0 6 1 15.5t8.5 34t21 43.5t43 34.5t69.5 15.5q-32 0 -50 -18t-20 -36l-2 -18v-786h-71v715zM214 786q0 3 -0.5 8t-4.5 17t-10.5 21.5t-21 17.5t-34.5 8q40 0 69.5 -14.5t43 -36t21 -42.5t8.5 -35l1 -15q-32 0 -50 17.5t-20 35.5zM214 500q0 -3 0.5 -7.5t4.5 -17
t10.5 -22t21.5 -17t35 -7.5q-40 0 -69.5 14.5t-43 35.5t-21 42.5t-8.5 36.5l-1 14q32 0 49.5 -18t19.5 -36z" />
    <glyph glyph-name="g" unicode="g" horiz-adv-x="325" 
d="M71 71q0 -3 0.5 -7.5t4.5 -17t10.5 -22t21 -17t34.5 -7.5q-40 0 -69 14.5t-42.5 35.5t-21 42.5t-8.5 35.5l-1 15v286q0 6 1 15.5t8.5 34t21 43t42.5 34t69 15.5q-32 0 -49.5 -17.5t-19.5 -35.5l-2 -18v-429zM71 -213q0 -3 0.5 -8t4.5 -17t10.5 -21.5t21 -17.5t34.5 -8
q-40 0 -69 14.5t-42.5 35.5t-21 42.5t-8.5 36.5l-1 14q32 0 49.5 -18t19.5 -36zM142 0v0v0zM142 571q40 0 69.5 -14.5t43 -35.5t21 -42t8.5 -35l1 -15v-286q0 -39 -14.5 -67.5t-32.5 -42.5t-41.5 -22t-35 -9.5t-18.5 -1.5q7 0 18.5 -1.5t35 -9.5t41.5 -21.5t32.5 -42
t14.5 -67.5q0 -6 -1 -15.5t-8.5 -34t-21 -43.5t-43 -34.5t-69.5 -15.5q32 0 49.5 18t19.5 36l2 18v143q0 19 -7 33t-16 21t-21 11t-17.5 4.5t-9.5 0.5q4 0 9.5 0.5t17.5 5t21 11t16 21t7 33.5v429q0 3 -0.5 7.5t-4.5 17t-10.5 22t-21 17t-34.5 7.5z" />
    <glyph glyph-name="h" unicode="h" 
d="M143 571q40 0 69.5 -14.5t43 -35.5t21 -42t8.5 -35l1 -15v-429h-72v500q0 3 -0.5 7.5t-4.5 17t-10.5 22t-21 17t-34.5 7.5zM0 857q3 0 7.5 -0.5t17 -4.5t22 -10.5t17 -21t7.5 -34.5v-786h-71v857z" />
    <glyph glyph-name="i" unicode="i" horiz-adv-x="114" 
d="M36 607q-15 0 -24 -8.5t-10.5 -15t-1.5 -11.5q0 4 0.5 9.5t4.5 17t11 21t21.5 16.5t33.5 7q0 -16 -8.5 -25t-17.5 -10zM0 500q0 3 0.5 7.5t4.5 17t10.5 22t21 17t34.5 7.5v-571h-71v500z" />
    <glyph glyph-name="j" unicode="j" 
d="M71 -213q0 -3 0.5 -8t4.5 -17t10.5 -21.5t21.5 -17.5t35 -8q-40 0 -69.5 14.5t-43 35.5t-21 42.5t-8.5 36.5l-1 14q32 0 49.5 -18t19.5 -36zM250 607q-15 0 -24 -8.5t-10.5 -15t-1.5 -11.5q0 4 0.5 9.5t4.5 17t11 21t21.5 16.5t33.5 7q0 -16 -8.5 -25t-17.5 -10zM214 500
q0 32 18 49.5t36 19.5l17 2v-713q0 -6 -1 -15.5t-8.5 -34t-21 -43.5t-42.5 -34.5t-69 -15.5q32 0 49.5 18t19.5 36l2 18v713z" />
    <glyph glyph-name="k" unicode="k" 
d="M71 786v-375q36 18 72 18q-32 0 -50 -18t-20 -36l-2 -18v-357h-71v857q3 0 7.5 -0.5t17 -4.5t22 -10.5t17 -21t7.5 -34.5zM286 571q0 -6 -1 -15.5t-8.5 -34t-21 -43t-43 -34t-69.5 -15.5q32 0 49.5 17.5t19.5 35.5l2 18q0 3 0.5 7.5t4.5 17t10.5 22t21.5 17t35 7.5z
M143 429q40 0 69.5 -14.5t43 -35.5t21 -42.5t8.5 -36.5l1 -14v-286h-72v357q0 3 -0.5 8t-4.5 17t-10.5 21.5t-21 17.5t-34.5 8z" />
    <glyph glyph-name="l" unicode="l" horiz-adv-x="114" 
d="M0 857q3 0 7.5 -0.5t17 -4.5t22 -10.5t17 -21t7.5 -34.5v-786h-71v857z" />
    <glyph glyph-name="m" unicode="m" horiz-adv-x="541" 
d="M143 571q29 0 55.5 -10.5t39.5 -21.5l12 -11q5 5 13.5 12t36.5 19t57 12q-32 0 -49.5 -17.5t-19.5 -35.5l-2 -18v-500h-72v500q0 3 -0.5 7.5t-4.5 17t-10.5 22t-21 17t-34.5 7.5zM357 571q40 0 69.5 -14.5t43 -35.5t21 -42t8.5 -35l1 -15v-429h-71v500q0 3 -0.5 7.5
t-4.5 17t-10.5 22t-21.5 17t-35 7.5zM0 571q38 0 57 -26q40 26 86 26q-32 0 -50 -17.5t-20 -35.5l-2 -18v-500h-71v429v0v142z" />
    <glyph glyph-name="n" unicode="n" 
d="M143 571q40 0 69.5 -14.5t43 -35.5t21 -42t8.5 -35l1 -15v-429h-72v500q0 3 -0.5 7.5t-4.5 17t-10.5 22t-21 17t-34.5 7.5zM0 571q38 0 57 -26q40 26 86 26q-32 0 -50 -17.5t-20 -35.5l-2 -18v-500h-71v429v0v142z" />
    <glyph glyph-name="o" unicode="o" horiz-adv-x="325" 
d="M141 571q40 0 69.5 -14.5t43 -35.5t21 -42t8.5 -35l1 -15v-286q0 -6 -1 -15.5t-8.5 -34t-21 -43.5t-43 -34.5t-69.5 -15.5q32 0 49.5 18t19.5 36l2 17v429q0 3 -0.5 7.5t-4.5 17t-10.5 22t-21 17t-34.5 7.5zM70 71q0 -3 0.5 -7.5t4.5 -17t10.5 -22t21 -17t34.5 -7.5
q-40 0 -69 14.5t-42.5 35.5t-21 42.5t-8.5 35.5l-1 15v286q0 6 1 15.5t8.5 34t21 43t42.5 34t69 15.5q-32 0 -49.5 -17.5t-19.5 -35.5l-2 -18v-429z" />
    <glyph glyph-name="p" unicode="p" horiz-adv-x="328" 
d="M144 571q40 0 69.5 -14.5t43 -35.5t21 -42t8.5 -35l1 -15v-286q0 -6 -1 -15.5t-8.5 -34t-21 -43.5t-43 -34.5t-69.5 -15.5q32 0 49.5 18t19.5 36l2 17v429q0 3 -0.5 7.5t-4.5 17t-10.5 22t-21 17t-34.5 7.5zM1 429q0 6 1 15.5t8.5 34t21 43t43 34t69.5 15.5
q-32 0 -49.5 -17.5t-19.5 -35.5l-2 -18v-429v-356h-72v714z" />
    <glyph glyph-name="q" unicode="q" 
d="M0 429q0 6 1 15.5t8.5 34t21 43t43 34t69.5 15.5q-32 0 -50 -17.5t-20 -35.5l-2 -18v-429q0 -3 0.5 -7.5t4.5 -17t10.5 -22t21.5 -17t35 -7.5q-40 0 -69.5 14.5t-43 35.5t-21 42.5t-8.5 35.5l-1 15v286zM143 571q40 0 69 -14.5t42.5 -35.5t21 -42t8.5 -35l1 -15v-714h-71
v356v429q0 3 -0.5 7.5t-4.5 17t-10.5 22t-21 17t-34.5 7.5z" />
    <glyph glyph-name="r" unicode="r" horiz-adv-x="294" 
d="M143 571q40 0 69.5 -14.5t43 -35.5t21 -42t8.5 -35l1 -15q-32 0 -50 17.5t-20 35.5l-2 18q0 3 -0.5 7.5t-4.5 17t-10.5 22t-21 17t-34.5 7.5zM0 571q38 0 57 -26q40 26 86 26q-32 0 -50 -17.5t-20 -35.5l-2 -18v-500h-71v429v0v142z" />
    <glyph glyph-name="s" unicode="s" horiz-adv-x="315" 
d="M215 500q0 3 -0.5 7.5t-4.5 17t-10.5 22t-21 17t-34.5 7.5q40 0 69.5 -14.5t43 -35.5t21 -42t8.5 -35l1 -15q-32 0 -50 17.5t-20 35.5zM144 286q40 0 69.5 -14.5t43 -35.5t21 -42.5t8.5 -35.5l1 -15q0 -6 -1 -15.5t-8.5 -34t-21 -43.5t-43 -34.5t-69.5 -15.5
q32 0 49.5 18t19.5 36l2 17v143q0 3 -0.5 8t-4.5 17t-10.5 21.5t-21 17.5t-34.5 8zM73 71q0 -3 0.5 -7.5t4.5 -17t10.5 -22t21 -17t34.5 -7.5q-40 0 -69.5 14.5t-43 35.5t-21 42.5t-8.5 35.5l-1 15q32 0 50 -18t20 -36zM73 357q0 -3 0.5 -7.5t4.5 -17t10.5 -22t21 -17
t34.5 -7.5q-40 0 -69.5 14.5t-43 35.5t-21 42.5t-8.5 35.5l-1 15q0 6 1 15.5t8.5 34t21 43t43 34t69.5 15.5q-32 0 -49.5 -17.5t-19.5 -35.5l-2 -18v-143z" />
    <glyph glyph-name="t" unicode="t" horiz-adv-x="299" 
d="M214 71q0 3 0.5 8t4.5 17t10.5 21.5t21 17.5t34.5 8q0 -6 -1 -15.5t-8.5 -34t-21 -43.5t-42.5 -34.5t-69 -15.5q32 0 49.5 18t19.5 36zM285 500q-6 0 -15.5 1t-34 8.5t-43 21t-34 43t-15.5 69.5q0 -32 17.5 -50t35.5 -20l18 -2q3 0 7.5 -0.5t17 -4.5t22 -10.5t17 -21
t7.5 -34.5zM71 71q0 -3 0.5 -7.5t4.5 -17t10.5 -22t21.5 -17t35 -7.5q-40 0 -69.5 14.5t-43 35.5t-21 42.5t-8.5 35.5l-1 15v714q3 0 7.5 -0.5t17 -4.5t22 -10.5t17 -21t7.5 -34.5v-715z" />
    <glyph glyph-name="u" unicode="u" 
d="M215 500q0 3 0.5 7.5t4.5 17t10.5 22t21 17t34.5 7.5v-571h-71v500zM72 71q0 -3 0.5 -7.5t4.5 -17t10.5 -22t21 -17t34.5 -7.5q-40 0 -69.5 14.5t-43 35.5t-21 42.5t-8.5 35.5l-1 15v428q32 0 50 -17.5t20 -35.5l2 -18v-429z" />
    <glyph glyph-name="v" unicode="v" 
d="M73 71q0 -3 0.5 -7.5t4.5 -17t10.5 -22t21 -17t34.5 -7.5q-40 0 -69.5 14.5t-43 35.5t-21 42.5t-8.5 35.5l-1 15v428q32 0 50 -17.5t20 -35.5l2 -18v-429zM215 500q0 3 0.5 7.5t4.5 17t10.5 22t21.5 17t35 7.5v-428q0 -6 -1 -15.5t-8.5 -34t-21 -43.5t-43 -34.5
t-69.5 -15.5q32 0 49.5 18t19.5 36l2 17v429z" />
    <glyph glyph-name="w" unicode="w" horiz-adv-x="540" 
d="M428 500q0 3 0.5 7.5t4.5 17t10.5 22t21.5 17t35 7.5v-428q0 -6 -1 -15.5t-8.5 -34t-21 -43.5t-43 -34.5t-69.5 -15.5q32 0 49.5 18t19.5 36l2 17v429zM71 71q0 -3 0.5 -7.5t4.5 -17t10.5 -22t21.5 -17t35 -7.5q-40 0 -69.5 14.5t-43 35.5t-21 42.5t-8.5 35.5l-1 15v428
q32 0 49.5 -17.5t19.5 -35.5l2 -18v-429zM285 71q0 -3 0.5 -7.5t4.5 -17t10.5 -22t21.5 -17t35 -7.5q-29 0 -55.5 11t-39.5 22l-12 11q-5 -5 -14 -12.5t-37 -19.5t-56 -12q32 0 49.5 18t19.5 36l2 17v500h71v-500z" />
    <glyph glyph-name="x" unicode="x" horiz-adv-x="326" 
d="M216 500q0 3 0.5 7.5t4.5 17t10.5 22t21.5 17t35 7.5v-142q0 -6 -1 -15.5t-8.5 -34t-21 -43.5t-43 -34.5t-69.5 -15.5q32 0 49.5 18t19.5 36l2 17v143zM2 143q0 6 1 15.5t8.5 34t21 43.5t43 34.5t69.5 15.5q-32 0 -49.5 -18t-19.5 -36l-2 -18v-214h-72v143zM145 286
q40 0 69.5 -14.5t43 -35.5t21 -42.5t8.5 -35.5l1 -15v-143h-72v214q0 3 -0.5 8t-4.5 17t-10.5 21.5t-21 17.5t-34.5 8zM145 286q-40 0 -69.5 14.5t-43 35.5t-21 42.5t-8.5 35.5l-1 15v142q32 0 50 -17.5t20 -35.5l2 -18v-143h-1q0 -3 0.5 -7.5t4.5 -17t10.5 -22t21.5 -17
t35 -7.5z" />
    <glyph glyph-name="y" unicode="y" horiz-adv-x="326" 
d="M143 0q-40 0 -69.5 14.5t-43 35.5t-21 42.5t-8.5 35.5l-1 15v428q32 0 49.5 -17.5t19.5 -35.5l2 -18v-429q0 -3 0.5 -7.5t4.5 -17t10.5 -22t21.5 -17t35 -7.5zM71 -213q0 -3 0.5 -8t4.5 -17t10.5 -21.5t21.5 -17.5t35 -8q-40 0 -69.5 14.5t-43 35.5t-21 42.5t-8.5 36.5
l-1 14q32 0 49.5 -18t19.5 -36zM214 500q0 3 0.5 7.5t4.5 17t10.5 22t21 17t34.5 7.5v-713q0 -6 -1 -15.5t-8.5 -34t-21 -43.5t-42.5 -34.5t-69 -15.5q32 0 49.5 18t19.5 36l2 18v713z" />
    <glyph glyph-name="z" unicode="z" horiz-adv-x="309" 
d="M215 72q0 3 0.5 8t4.5 17t10.5 21.5t21 17.5t34.5 8q0 -6 -1 -15.5t-8.5 -34t-21 -43.5t-43 -34.5t-69.5 -15.5q32 0 50 17.5t20 35.5zM72 501q-3 0 -8 0.5t-17 4.5t-21.5 10.5t-17.5 21t-8 34.5q6 0 15.5 -1t34 -8.5t43.5 -21t34.5 -43t15.5 -69.5q0 32 -17.5 50
t-35.5 20zM0 144q0 6 1 15.5t8.5 34t21 43t43 34t69.5 15.5q-32 0 -49.5 -17.5t-19.5 -35.5l-2 -18v-214h-72v143zM286 429q0 -6 -1 -15.5t-8.5 -34t-21 -43.5t-43 -34.5t-69.5 -15.5q32 0 50 18t20 36l2 18q0 3 0.5 7.5t4.5 17t10.5 22t21 17t34.5 7.5z" />
    <glyph glyph-name="braceleft" unicode="{" horiz-adv-x="214" 
d="M143 71q0 -3 0.5 -7.5t4.5 -17t10.5 -22t21 -17t34.5 -7.5q-40 0 -69.5 14.5t-43 35.5t-21 42.5t-8.5 35.5l-1 15v214v0q0 20 -7.5 34.5t-17 21.5t-21.5 11t-17 4.5t-8 0.5v0v0q3 0 8 0.5t17 4.5t21.5 10.5t17 21t7.5 34.5v214q0 6 1 15.5t8.5 34t21 43.5t43 34.5
t69.5 15.5q-32 0 -49.5 -17.5t-19.5 -35.5l-2 -18v-215q0 -39 -15 -68t-33.5 -42.5t-43 -21.5t-35 -9t-16.5 -1q6 0 16.5 -1t35 -9t43 -21.5t33.5 -42.5t15 -69v0v-215z" />
    <glyph glyph-name="bar" unicode="|" horiz-adv-x="114" 
d="M71 857v-1142h-71v1142h71z" />
    <glyph glyph-name="braceright" unicode="}" horiz-adv-x="243" 
d="M214 429v0q-3 0 -8 -0.5t-17 -4.5t-21.5 -11t-17 -21.5t-7.5 -34.5v-214q0 -6 -1 -15.5t-8.5 -34t-21 -43.5t-43 -34.5t-69.5 -15.5q32 0 49.5 18t19.5 36l2 17v215q0 40 15 69t33.5 42.5t43 21.5t35 9t16.5 1q-6 0 -16.5 1t-35 9t-43 21.5t-33.5 42.5t-15 68v0v215
q0 3 -0.5 7.5t-4.5 17t-10.5 22t-21 17t-34.5 7.5q40 0 69.5 -14.5t43 -35.5t21 -42.5t8.5 -36.5l1 -14v-214v0q0 -20 7.5 -34.5t17 -21t21.5 -10.5t17 -4.5t8 -0.5v0z" />
    <glyph glyph-name="asciitilde" unicode="~" horiz-adv-x="329" 
d="M71 286q4 -6 11 -13t25.5 -8.5t34.5 21.5q-20 -29 -42 -39.5t-39 -5t-31.5 15t-21.5 19.5l-8 10q16 22 33.5 22t27.5 -11zM142 286q3 4 9 11t22 18t32 15t38 -6t42 -38q-16 -23 -33.5 -23t-27.5 11l-10 12q-10 13 -21 18.5t-19 3.5t-16 -7t-11.5 -9t-4.5 -6z" />
    <glyph glyph-name="exclamdown" unicode="&#xa1;" horiz-adv-x="114" 
d="M35 321q-15 0 -23.5 -8.5t-10 -15t-1.5 -11.5q0 4 0.5 9.5t4.5 17t11 21t21.5 16.5t33.5 7q0 -16 -9 -25t-18 -10zM0 214q0 3 0.5 8t4.5 17t10.5 21.5t21 17.5t34.5 8v-571h-71v499z" />
    <glyph glyph-name="cent" unicode="&#xa2;" horiz-adv-x="312" 
d="M212 71q0 3 0.5 8t4.5 17t10.5 21.5t21.5 17.5t35 8q0 -6 -1 -15.5t-8.5 -34t-21 -43.5t-43 -34.5t-69.5 -15.5q32 0 49.5 18t19.5 36zM199 545l-95 -535q18 -10 37 -10l-38 5l-13 -75h-24l15 83q-82 34 -82 130v286q0 6 1 15.5t8.5 34t21 43t42.5 34t69 15.5
q-32 0 -49.5 -17.5t-19.5 -35.5l-2 -18v-429q0 -28 13 -44l95 535q-18 9 -37 9l38 -5l13 77h24l-15 -84q83 -34 83 -130q-32 0 -50 17.5t-20 35.5l-2 18q0 27 -13 45z" />
    <glyph glyph-name="sterling" unicode="&#xa3;" horiz-adv-x="380" 
d="M286 500q0 3 -0.5 7.5t-4.5 17t-10.5 22t-21.5 17t-35 7.5q40 0 69.5 -14.5t43 -35.5t21 -42t8.5 -35l1 -15q-32 0 -49.5 17.5t-19.5 35.5zM214 143q40 0 69.5 -14.5t43 -35.5t21 -42.5t8.5 -36.5l1 -14q-32 0 -49.5 18t-19.5 36l-2 17q0 3 -0.5 8t-4.5 17t-10.5 21.5
t-21.5 17.5t-35 8zM286 298v-24h-143v-131q0 -6 -1 -15.5t-8.5 -34t-21 -43.5t-43 -34.5t-69.5 -15.5q32 0 49.5 18t19.5 36l2 17v203h-71v24h71v131q0 6 1 15.5t8.5 34t21 43t43 34t69.5 15.5q-32 0 -49.5 -17.5t-19.5 -35.5l-2 -18v-202h143z" />
    <glyph glyph-name="currency" unicode="&#xa4;" horiz-adv-x="319" 
d="M143 429q40 0 69.5 -14.5t43 -35.5t21 -42.5t8.5 -36.5l1 -14q0 -6 -1 -15.5t-8.5 -34t-21 -43.5t-43 -34.5t-69.5 -15.5q32 0 49.5 17.5t19.5 35.5l2 18v143q0 3 -0.5 8t-4.5 17t-10.5 21.5t-21 17.5t-34.5 8zM143 143q4 0 9.5 -0.5t17 -4.5t21 -11t16.5 -21.5t7 -34.5
q-16 0 -24.5 9t-9.5 18l-1 9q0 15 -9 24t-15.5 10.5t-11.5 1.5zM71 71q0 20 7 34.5t16.5 21.5t21 11t17 4.5t9.5 0.5q-4 0 -10.5 -1.5t-15.5 -10.5t-9 -24q0 -4 -1 -10t-10 -16t-25 -10zM71 214q0 -3 0.5 -7.5t4.5 -17t10.5 -22t21.5 -17t35 -7.5q-40 0 -69.5 14.5t-43 35.5
t-21 42.5t-8.5 36.5l-1 14q0 6 1 15.5t8.5 34t21 43.5t43 34.5t69.5 15.5q-32 0 -50 -18t-20 -36l-2 -18v-143zM142 429q-4 0 -9.5 0.5t-17 4.5t-21 11t-16.5 21.5t-7 33.5q16 0 25 -9t10 -18l1 -9q0 -15 9 -23.5t15.5 -10t10.5 -1.5zM214 500q0 -19 -7 -33.5t-16.5 -21.5
t-21 -11t-17 -4.5t-9.5 -0.5q5 0 11.5 1.5t15.5 10t9 23.5q0 4 1 10t9.5 16t24.5 10z" />
    <glyph glyph-name="brokenbar" unicode="&#xa6;" horiz-adv-x="113" 
d="M1 857h72v-500h-72v500zM1 -285v499h72v-499h-72z" />
    <glyph glyph-name="section" unicode="&#xa7;" horiz-adv-x="328" 
d="M217 786q0 3 -0.5 7.5t-4.5 17t-10.5 22t-21.5 17t-35 7.5q40 0 69.5 -14.5t43 -35.5t21 -42.5t8.5 -36.5l1 -14q-32 0 -49.5 18t-19.5 36zM145 571q40 0 69.5 -14.5t43 -35.5t21 -42t8.5 -35l1 -15v-286q0 -39 -14.5 -68t-33 -42.5t-42 -21.5t-34.5 -9.5t-18 -1.5
q7 0 18 -1t34.5 -9t42 -21.5t33 -42.5t14.5 -68v0q0 -6 -1 -15.5t-8.5 -34t-21 -43.5t-43 -34.5t-69.5 -15.5q32 0 50 18t20 36l2 18v143q0 20 -7.5 34t-16.5 21t-21.5 10.5t-17.5 4t-8 0.5h-1v0h1q3 0 8.5 0.5t17.5 4.5t21 10.5t16.5 21t7.5 34.5v429q0 3 -0.5 7.5t-4.5 17
t-10.5 22t-21.5 17t-35 7.5zM74 643q0 -3 0.5 -8t4.5 -17t10.5 -21.5t21 -17.5t34.5 -8q-40 0 -69.5 14.5t-43 35.5t-21 42.5t-8.5 36.5l-1 14q0 6 1 15.5t8.5 34t21 43.5t43 34.5t69.5 15.5q-32 0 -49.5 -17.5t-19.5 -35.5l-2 -18v-143zM74 71q0 -3 0.5 -7.5t4.5 -17
t10.5 -22t21 -17t34.5 -7.5q-40 0 -69.5 14.5t-43 35.5t-21 42.5t-8.5 35.5l-1 15v286q0 6 1 15.5t8.5 34t21 43t43 34t69.5 15.5q-32 0 -49.5 -17.5t-19.5 -35.5l-2 -18v-429zM74 -213q0 -3 0.5 -8t4.5 -17t10.5 -21.5t21 -17.5t34.5 -8q-40 0 -69.5 14.5t-43 35.5
t-21 42.5t-8.5 36.5l-1 14q32 0 50 -18t20 -36z" />
    <glyph glyph-name="dieresis" unicode="&#xa8;" horiz-adv-x="330" 
d="M36 859q14 0 24.5 -10.5t10.5 -25.5t-10.5 -25.5t-24.5 -10.5q-15 0 -25.5 10.5t-10.5 25.5t10.5 25.5t25.5 10.5zM250 859q15 0 25.5 -10.5t10.5 -25.5t-10.5 -25.5t-25.5 -10.5t-25.5 10.5t-10.5 25.5t10.5 25.5t25.5 10.5z" />
    <glyph glyph-name="copyright" unicode="&#xa9;" horiz-adv-x="611" 
d="M356 214q0 -19 -7 -33.5t-16.5 -21.5t-21 -11t-17 -4.5t-9.5 -0.5q5 0 11.5 1.5t15 10.5t8.5 24q0 4 1 10t10 15.5t25 9.5zM284 429l-3 -1q-3 0 -5.5 -1t-6.5 -2.5t-7.5 -4t-6.5 -6t-4.5 -9t-1.5 -12.5v-214q0 -15 8.5 -24t15 -10.5t11.5 -1.5q-4 0 -9.5 0.5t-17 4.5
t-21 11t-16.5 21.5t-7 33.5v143q0 12 3 22.5t7.5 17.5t11 12.5t12.5 9t13 5.5t11.5 3t8.5 1zM320 393q0 7 -1.5 12.5t-4.5 9t-6.5 6t-7.5 4t-6.5 2.5t-5.5 1l-3 1l4 -1q4 0 8.5 -1t11.5 -3t13 -5.5t12.5 -9t11 -12.5t7.5 -17.5t3 -22.5q-16 0 -25 9t-10 18zM285 571
q7 0 19 -1t41 -6.5t56 -16t59 -32t55.5 -50t39 -75.5t15.5 -104q0 -58 -15.5 -104.5t-39 -75.5t-55.5 -50.5t-59 -32t-56 -16t-41 -6.5t-19 -1q7 0 18 1.5t34.5 9.5t42 21.5t33 42.5t14.5 68v286q0 39 -14.5 67.5t-33 42t-42 21.5t-34.5 9.5t-18 1.5zM142 143
q0 -39 14.5 -68t33 -42.5t42 -21.5t34.5 -9.5t18 -1.5q-7 0 -18.5 1t-41 6.5t-56 16t-58.5 32t-55.5 50.5t-39 75.5t-15.5 104.5q0 57 15.5 104t39 75.5t55.5 50t58.5 32t56 16t41 6.5t18.5 1q-7 0 -18 -1.5t-34.5 -9.5t-42 -21.5t-33 -42t-14.5 -67.5v-286z" />
    <glyph glyph-name="ordfeminine" unicode="&#xaa;" horiz-adv-x="183" 
d="M35 607q0 -4 1 -10t10 -16t25 -10q-32 0 -49.5 17.5t-19.5 35.5l-2 18v36q0 3 0.5 8t4.5 17t10.5 21.5t21 17.5t34.5 8q-16 0 -25 -9t-10 -18l-1 -9v-107zM71 857q32 0 49.5 -18t19.5 -36l2 -18v-143q0 -3 -0.5 -7.5t-4.5 -17t-10.5 -22t-21 -17t-34.5 -7.5q16 0 25 9
t10 18l1 9v214q0 4 -1 10t-10 16t-25 10zM0 785q0 3 0.5 8t4.5 17t10.5 21.5t21 17.5t34.5 8q-16 0 -25 -9t-10 -18l-1 -9q0 -4 -1 -10t-9.5 -16t-24.5 -10z" />
    <glyph glyph-name="guillemotleft" unicode="&#xab;" 
d="M143 358l-71 -72l71 -71v-71l-143 142l143 143v-71zM286 429v-71l-72 -72l72 -71v-71l-143 142z" />
    <glyph glyph-name="logicalnot" unicode="&#xac;" horiz-adv-x="328" 
d="M142 356q6 0 15.5 -1t34 -8.5t43.5 -21t34.5 -43t15.5 -69.5q0 32 -17.5 49.5t-35.5 19.5l-18 2h-143q-3 0 -7.5 0.5t-17 4.5t-22 10.5t-17 21.5t-7.5 35h142z" />
    <glyph glyph-name="uni00AD" unicode="&#xad;" horiz-adv-x="330" 
d="M0 257v57h286v-57h-286z" />
    <glyph glyph-name="registered" unicode="&#xae;" horiz-adv-x="613" 
d="M287 571q7 0 18.5 -1t41 -6.5t56.5 -16t59 -32t55.5 -50t39 -75.5t15.5 -104q0 -58 -15.5 -104.5t-39 -75.5t-55.5 -50.5t-59 -32t-56.5 -16t-41 -6.5t-18.5 -1q7 0 18 1.5t34.5 9.5t42 21.5t33 42.5t14.5 68v286q0 39 -14.5 67.5t-33 42t-42 21.5t-34.5 9.5t-18 1.5z
M143 143q0 -39 14.5 -68t33 -42.5t42 -21.5t35 -9.5t18.5 -1.5q-7 0 -19 1t-41.5 6.5t-56.5 16t-59 32t-55.5 50.5t-39 75.5t-15.5 104.5q0 57 15.5 104t39 75.5t55.5 50t59 32t56.5 16t41.5 6.5t19 1q-7 0 -18.5 -1.5t-35 -9.5t-42 -21.5t-33 -42t-14.5 -67.5v-286z
M322 393q0 7 -1.5 12.5t-5 9t-6.5 6t-7 4t-7 2.5t-6 1l-3 1l4 -1q3 0 7 -0.5t10 -2t11.5 -4t11.5 -6t10.5 -9t8.5 -12.5t6.5 -16.5t2.5 -20.5q-16 0 -25 9t-10 18zM215 429q19 0 28 -14q20 14 43 14q-16 0 -25 -9t-10 -18l-1 -9v-250h-35v286z" />
    <glyph glyph-name="macron" unicode="&#xaf;" horiz-adv-x="331" 
d="M0 802v57h286v-57h-286z" />
    <glyph glyph-name="degree" unicode="&#xb0;" horiz-adv-x="184" 
d="M72 858q4 0 9.5 -0.5t17 -4.5t21 -11t16.5 -21.5t7 -33.5q0 -31 -18.5 -49t-31.5 -20.5t-21 -2.5l4 1q3 0 6.5 1t8 4t8 6.5t6 9.5t2.5 14v72q0 15 -9 23.5t-15.5 10t-10.5 1.5zM71 858q-5 0 -11.5 -1.5t-15.5 -10t-9 -23.5v-72q0 -7 1.5 -12.5t5 -9t6.5 -6t7 -4t7 -2.5
t6 -1l3 -1q-8 0 -21 2.5t-31.5 20.5t-18.5 49q0 19 7 33.5t16.5 21.5t21 11t17 4.5t9.5 0.5z" />
    <glyph glyph-name="plusminus" unicode="&#xb1;" horiz-adv-x="314" 
d="M171 315h114v-57h-114v-114h-57v114h-114v57h114v115h57v-115zM0 73v57h285v-57h-285z" />
    <glyph glyph-name="twosuperior" unicode="&#xb2;" horiz-adv-x="181" 
d="M36 607q0 -4 1 -10t10 -16t25 -10q-32 0 -50 17.5t-20 35.5l-2 18v0q0 3 0.5 8t4.5 17t10.5 21.5t21.5 17.5t35 8q-16 0 -25 -9t-10 -18l-1 -9v-71zM107 607q0 4 1 10t10 15.5t25 9.5q0 -3 -0.5 -7.5t-4.5 -17t-10.5 -22t-21 -17t-34.5 -7.5q16 0 24.5 9t9.5 18zM36 821
q0 -4 -1 -10t-10 -16t-25 -10q0 3 0.5 8t4.5 17t10.5 21.5t21.5 17.5t35 8q-16 0 -25 -9t-10 -18zM107 821q0 4 -1 10t-9.5 16t-24.5 10q32 0 49.5 -18t19.5 -36l2 -18q0 -3 -0.5 -7.5t-4.5 -17t-10.5 -22t-21 -17t-34.5 -7.5q16 0 24.5 9t9.5 18l1 9v71z" />
    <glyph glyph-name="threesuperior" unicode="&#xb3;" horiz-adv-x="183" 
d="M0 786q0 3 0.5 7.5t4.5 17t10.5 22t21 17t34.5 7.5q-16 0 -24.5 -9t-9.5 -18l-1 -9q0 -4 -1 -10t-10 -15.5t-25 -9.5zM143 786q0 -3 -0.5 -8t-4.5 -17t-10.5 -21.5t-21.5 -17.5t-35 -8q16 0 25 9t10 18l1 9v71q0 4 -1 10t-10 16t-25 10q32 0 50 -17.5t20 -35.5zM36 607
q0 -4 1 -10t9.5 -16t24.5 -10q-32 0 -49.5 18t-19.5 36l-2 18q16 0 25 -9t10 -18zM71 714q32 0 50 -18t20 -36l2 -17v0q0 -3 -0.5 -8t-4.5 -17t-10.5 -21.5t-21.5 -17.5t-35 -8q16 0 25 9t10 18l1 9v72q0 4 -1 10t-10 15.5t-25 9.5z" />
    <glyph glyph-name="acute" unicode="&#xb4;" horiz-adv-x="124" 
d="M71 857v-71q0 -32 -17.5 -50t-35.5 -20l-18 -2v72q0 32 18 49.5t36 19.5z" />
    <glyph glyph-name="mu" unicode="&#xb5;" horiz-adv-x="328" 
d="M73 71q0 -3 0.5 -7.5t4.5 -17t10.5 -22t21 -17t34.5 -7.5q-40 0 -69.5 14.5t-43 35.5t-21 42.5t-8.5 35.5l-1 15v428q32 0 50 -17.5t20 -35.5l2 -18v-429zM215 500q0 3 0.5 7.5t4.5 17t10.5 22t21.5 17t35 7.5v-856h-72v285v500z" />
    <glyph glyph-name="paragraph" unicode="&#xb6;" horiz-adv-x="328" 
d="M143 857q40 0 69.5 -14.5t43 -35.5t21 -42.5t8.5 -36.5l1 -14v-714h-72v357v429q0 3 -0.5 7.5t-4.5 17t-10.5 22t-21 17t-34.5 7.5zM0 714q0 6 1 15.5t8.5 34t21 43.5t43 34.5t69.5 15.5q-32 0 -50 -17.5t-20 -35.5l-2 -18v-429q0 -3 0.5 -7.5t4.5 -17t10.5 -22t21.5 -17
t35 -7.5v-286h-72v286v18q-71 34 -71 125v285z" />
    <glyph glyph-name="onesuperior" unicode="&#xb9;" horiz-adv-x="78" 
d="M36 855v-250q0 -4 -1 -10t-10 -16t-25 -10v250q0 4 1 10t10 16t25 10z" />
    <glyph glyph-name="ordmasculine" unicode="&#xba;" horiz-adv-x="182" 
d="M36 607q0 -4 1 -10t9.5 -16t24.5 -10q-32 0 -49.5 18t-19.5 36l-2 18v143q0 3 0.5 7.5t4.5 17t10.5 22t21 17t34.5 7.5q-16 0 -24.5 -9t-9.5 -18l-1 -9v-116q18 9 35 9q-16 0 -24.5 -8.5t-9.5 -17.5l-1 -9v-72zM71 857q32 0 50 -17.5t20 -35.5l2 -18v0v-143q0 -3 -0.5 -8
t-4.5 -17t-10.5 -21.5t-21.5 -17.5t-35 -8q16 0 25 9t10 18l1 9v116q-18 -9 -36 -9q16 0 25 9t10 18l1 9v71q0 4 -1 10t-10 16t-25 10z" />
    <glyph glyph-name="guillemotright" unicode="&#xbb;" horiz-adv-x="326" 
d="M143 429l143 -143l-143 -143v71l71 72l-71 71v72zM0 429l143 -143l-143 -143v71l71 72l-71 71v72z" />
    <glyph glyph-name="questiondown" unicode="&#xbf;" horiz-adv-x="286" 
d="M214 285q0 -6 -1 -15.5t-8.5 -34t-21 -43.5t-43 -34.5t-69.5 -15.5q32 0 50 18t20 36l2 17v143q0 3 0.5 7.5t4.5 17t10.5 22t21 17t34.5 7.5v-142zM71 -214q0 -3 0.5 -8t4.5 -17t10.5 -21.5t21.5 -17.5t35 -8q-40 0 -69.5 14.5t-43 35.5t-21 42.5t-8.5 35.5l-1 15v143
q0 6 1 15.5t8.5 34t21 43t43 34t69.5 15.5q-32 0 -50 -18t-20 -36l-2 -18v-284zM214 -214q0 3 0.5 7.5t4.5 17t10.5 22t21.5 17t35 7.5q0 -6 -1 -15.5t-8.5 -34t-21 -43.5t-43 -34.5t-69.5 -15.5q32 0 49.5 18t19.5 36zM179 499q-15 0 -25.5 10.5t-10.5 25.5q0 14 10.5 24.5
t25.5 10.5q14 0 24.5 -10.5t10.5 -24.5q0 -15 -10.5 -25.5t-24.5 -10.5z" />
    <glyph glyph-name="Agrave" unicode="&#xc0;" horiz-adv-x="328" 
d="M215 929q-40 0 -69 14.5t-42.5 35.5t-21 42t-8.5 35l-1 15q32 0 49.5 -17.5t19.5 -35.5l2 -18q0 -3 0.5 -7.5t4.5 -17t10.5 -22t21 -17t34.5 -7.5zM1 714q0 6 1 15.5t8.5 34t21 43.5t43 34.5t69.5 15.5q-32 0 -49.5 -17.5t-19.5 -35.5l-2 -18q0 -3 -0.5 -8t-4.5 -17
t-10.5 -21.5t-21.5 -17.5t-35 -8zM144 857q40 0 69.5 -14.5t43 -35.5t21 -42.5t8.5 -36.5l1 -14v-571q0 -6 -1 -15.5t-8.5 -34t-21 -43.5t-43 -34.5t-69.5 -15.5q32 0 49.5 18t19.5 36l2 17v715q0 3 -0.5 7.5t-4.5 17t-10.5 22t-21 17t-34.5 7.5zM73 71q0 -3 0.5 -7.5
t4.5 -17t10.5 -22t21 -17t34.5 -7.5q-40 0 -69.5 14.5t-43 35.5t-21 42.5t-8.5 35.5l-1 15v286q0 6 1 15.5t8.5 34t21 43t43 34t69.5 15.5q-32 0 -49.5 -17.5t-19.5 -35.5l-2 -18v-429z" />
    <glyph glyph-name="Aacute" unicode="&#xc1;" 
d="M143 1000q-3 0 -8 -0.5t-17 -4.5t-21.5 -10.5t-17.5 -21t-8 -34.5q0 40 14.5 69t35.5 42.5t42.5 21t36.5 8.5l14 1q0 -32 -18 -49.5t-36 -19.5zM71 71q0 -3 0.5 -7.5t4.5 -17t10.5 -22t21.5 -17t35 -7.5q-40 0 -69.5 14.5t-43 35.5t-21 42.5t-8.5 35.5l-1 15v286
q0 6 1 15.5t8.5 34t21 43t43 34t69.5 15.5q-32 0 -50 -17.5t-20 -35.5l-2 -18v-429zM0 714q0 6 1 15.5t8.5 34t21 43.5t43 34.5t69.5 15.5q-32 0 -50 -17.5t-20 -35.5l-2 -18q0 -3 -0.5 -8t-4.5 -17t-10.5 -21.5t-21 -17.5t-34.5 -8zM143 857q40 0 69 -14.5t42.5 -35.5
t21 -42.5t8.5 -36.5l1 -14v-571q0 -6 -1 -15.5t-8.5 -34t-21 -43.5t-42.5 -34.5t-69 -15.5q32 0 49.5 18t19.5 36l2 17v715q0 3 -0.5 7.5t-4.5 17t-10.5 22t-21 17t-34.5 7.5z" />
    <glyph glyph-name="Acircumflex" unicode="&#xc2;" horiz-adv-x="328" 
d="M73 71q0 -3 0.5 -7.5t4.5 -17t10.5 -22t21 -17t34.5 -7.5q-40 0 -69.5 14.5t-43 35.5t-21 42.5t-8.5 35.5l-1 15v286q0 6 1 15.5t8.5 34t21 43t43 34t69.5 15.5q-32 0 -49.5 -17.5t-19.5 -35.5l-2 -18v-429zM1 714q0 6 1 15.5t8.5 34t21 43.5t43 34.5t69.5 15.5
q-32 0 -49.5 -17.5t-19.5 -35.5l-2 -18q0 -3 -0.5 -8t-4.5 -17t-10.5 -21.5t-21.5 -17.5t-35 -8zM144 857q40 0 69.5 -14.5t43 -35.5t21 -42.5t8.5 -36.5l1 -14v-571q0 -6 -1 -15.5t-8.5 -34t-21 -43.5t-43 -34.5t-69.5 -15.5q32 0 49.5 18t19.5 36l2 17v715q0 3 -0.5 7.5
t-4.5 17t-10.5 22t-21 17t-34.5 7.5zM144 964l-36 -35h-35l71 71l71 -71h-35z" />
    <glyph glyph-name="Atilde" unicode="&#xc3;" 
d="M71 71q0 -3 0.5 -7.5t4.5 -17t10.5 -22t21.5 -17t35 -7.5q-40 0 -69.5 14.5t-43 35.5t-21 42.5t-8.5 35.5l-1 15v286q0 6 1 15.5t8.5 34t21 43t43 34t69.5 15.5q-32 0 -50 -17.5t-20 -35.5l-2 -18v-429zM143 857q40 0 69 -14.5t42.5 -35.5t21 -42.5t8.5 -36.5l1 -14v-571
q0 -6 -1 -15.5t-8.5 -34t-21 -43.5t-42.5 -34.5t-69 -15.5q32 0 49.5 18t19.5 36l2 17v715q0 3 -0.5 7.5t-4.5 17t-10.5 22t-21 17t-34.5 7.5zM0 714q0 6 1 15.5t8.5 34t21 43.5t43 34.5t69.5 15.5q-32 0 -50 -17.5t-20 -35.5l-2 -18q0 -3 -0.5 -8t-4.5 -17t-10.5 -21.5
t-21 -17.5t-34.5 -8zM142 964q-2 -5 -5 -10t-11 -14t-16 -11.5t-18.5 5.5t-20.5 30q5 11 10.5 15t10 2t8 -5.5t5.5 -7.5l2 -4q16 -37 35 0zM178 964q-16 37 -35 0q1 3 4.5 9.5t11 14.5t15.5 11.5t19 -5t21 -30.5q-5 -11 -10.5 -15t-10 -2t-8 5.5t-5.5 7.5z" />
    <glyph glyph-name="Adieresis" unicode="&#xc4;" horiz-adv-x="328" 
d="M73 71q0 -3 0.5 -7.5t4.5 -17t10.5 -22t21 -17t34.5 -7.5q-40 0 -69.5 14.5t-43 35.5t-21 42.5t-8.5 35.5l-1 15v286q0 6 1 15.5t8.5 34t21 43t43 34t69.5 15.5q-32 0 -49.5 -17.5t-19.5 -35.5l-2 -18v-429zM1 714q0 6 1 15.5t8.5 34t21 43.5t43 34.5t69.5 15.5
q-32 0 -49.5 -17.5t-19.5 -35.5l-2 -18q0 -3 -0.5 -8t-4.5 -17t-10.5 -21.5t-21.5 -17.5t-35 -8zM144 857q40 0 69.5 -14.5t43 -35.5t21 -42.5t8.5 -36.5l1 -14v-571q0 -6 -1 -15.5t-8.5 -34t-21 -43.5t-43 -34.5t-69.5 -15.5q32 0 49.5 18t19.5 36l2 17v715q0 3 -0.5 7.5
t-4.5 17t-10.5 22t-21 17t-34.5 7.5zM37 929q-15 0 -25.5 10.5t-10.5 24.5q0 15 10.5 25.5t25.5 10.5t25.5 -10.5t10.5 -25.5q0 -14 -10.5 -24.5t-25.5 -10.5zM251 929q-15 0 -25.5 10.5t-10.5 24.5q0 15 10.5 25.5t25.5 10.5t25.5 -10.5t10.5 -25.5q0 -14 -10.5 -24.5
t-25.5 -10.5z" />
    <glyph glyph-name="Aring" unicode="&#xc5;" 
d="M71 71q0 -3 0.5 -7.5t4.5 -17t10.5 -22t21.5 -17t35 -7.5q-40 0 -69.5 14.5t-43 35.5t-21 42.5t-8.5 35.5l-1 15v286q0 6 1 15.5t8.5 34t21 43t43 34t69.5 15.5q-32 0 -50 -17.5t-20 -35.5l-2 -18v-429zM0 714q0 6 1 15.5t8.5 34t21 43.5t43 34.5t69.5 15.5
q-32 0 -50 -17.5t-20 -35.5l-2 -18q0 -3 -0.5 -8t-4.5 -17t-10.5 -21.5t-21 -17.5t-34.5 -8zM143 857q40 0 69 -14.5t42.5 -35.5t21 -42.5t8.5 -36.5l1 -14v-571q0 -6 -1 -15.5t-8.5 -34t-21 -43.5t-42.5 -34.5t-69 -15.5q32 0 49.5 18t19.5 36l2 17v715q0 3 -0.5 7.5
t-4.5 17t-10.5 22t-21 17t-34.5 7.5zM143 929q5 0 11.5 1.5t15 10t8.5 23.5v72q0 15 -8.5 23.5t-15 10t-11.5 1.5q4 0 9.5 -0.5t17 -4.5t21 -11t16.5 -21.5t7 -33.5t-7 -33.5t-16.5 -21.5t-21 -11t-17 -4.5t-9.5 -0.5zM142 929q-4 0 -9.5 0.5t-17 4.5t-21 11t-16.5 21.5
t-7 33.5t7 33.5t16.5 21.5t21 11t17 4.5t9.5 0.5q-5 0 -11.5 -1.5t-15 -10t-8.5 -23.5v-72q0 -15 8.5 -23.5t15 -10t11.5 -1.5z" />
    <glyph glyph-name="AE" unicode="&#xc6;" horiz-adv-x="541" 
d="M73 71q0 -3 0.5 -7.5t4.5 -17t10.5 -22t21 -17t34.5 -7.5q-40 0 -69.5 14.5t-43 35.5t-21 42.5t-8.5 35.5l-1 15v286q0 6 1 15.5t8.5 34t21 43t43 34t69.5 15.5q-32 0 -49.5 -17.5t-19.5 -35.5l-2 -18v-429zM1 714q0 6 1 15.5t8.5 34t21 43.5t43 34.5t69.5 15.5
q-32 0 -49.5 -17.5t-19.5 -35.5l-2 -18q0 -3 -0.5 -8t-4.5 -17t-10.5 -21.5t-21.5 -17.5t-35 -8zM144 857q29 0 55.5 -11t38.5 -22l13 -11q5 5 13.5 12.5t36.5 19.5t57 12q-32 0 -49.5 -17.5t-19.5 -35.5l-2 -18v-715q0 -3 0.5 -7.5t4.5 -17t10.5 -22t21 -17t34.5 -7.5
q-29 0 -55.5 11t-38.5 22l-13 11q-5 -5 -13.5 -12.5t-36.5 -19.5t-57 -12q32 0 49.5 18t19.5 36l2 17v715q0 3 -0.5 7.5t-4.5 17t-10.5 22t-21 17t-34.5 7.5zM501 143q0 -6 -1 -15.5t-8.5 -34t-21 -43.5t-43 -34.5t-69.5 -15.5q32 0 50 18t20 36l2 17q0 3 0.5 8t4.5 17
t10.5 21.5t21 17.5t34.5 8zM358 286q32 0 50 18t20 36l2 17v429q0 3 -0.5 7.5t-4.5 17t-10.5 22t-21.5 17t-35 7.5q40 0 69.5 -14.5t43 -35.5t21 -42.5t8.5 -36.5l1 -14v-285q0 -6 -1 -15.5t-8.5 -34t-21 -43.5t-43 -34.5t-69.5 -15.5z" />
    <glyph glyph-name="Ccedilla" unicode="&#xc7;" horiz-adv-x="302" 
d="M214 71q0 3 0.5 8t4.5 17t10.5 21.5t21 17.5t34.5 8q0 -6 -1 -15.5t-8.5 -34t-21 -43.5t-43 -34.5t-69.5 -15.5q32 0 50 18t20 36zM214 786q0 3 -0.5 7.5t-4.5 17t-10.5 22t-21.5 17t-35 7.5q40 0 69.5 -14.5t43 -35.5t21 -42.5t8.5 -36.5l1 -14q-32 0 -49.5 18t-19.5 36
zM71 71q0 -3 0.5 -7.5t4.5 -17t10.5 -22t21 -17t34.5 -7.5q-40 0 -69 14.5t-42.5 35.5t-21 42.5t-8.5 35.5l-1 15v571q0 6 1 15.5t8.5 34t21 43.5t42.5 34.5t69 15.5q-32 0 -49.5 -17.5t-19.5 -35.5l-2 -18v-715zM143 0q9 0 21.5 -2t31 -19.5t18.5 -48.5q0 -20 -7 -34.5
t-16.5 -21.5t-21 -11t-17 -4.5t-9.5 -0.5q4 0 10.5 1.5t15.5 10.5t9 24v71q0 15 -9 24t-15 10t-11 1zM106 -106q0 -15 9 -24t15.5 -10.5t11.5 -1.5q-4 0 -9.5 0.5t-17 4.5t-21 11t-16.5 21.5t-7 34.5q16 0 24.5 -9t9.5 -18z" />
    <glyph glyph-name="Egrave" unicode="&#xc8;" horiz-adv-x="325" 
d="M214 929q-40 0 -69.5 14.5t-43 35.5t-21 42t-8.5 35l-1 15q32 0 50 -17.5t20 -35.5l2 -18q0 -3 0.5 -7.5t4.5 -17t10.5 -22t21 -17t34.5 -7.5zM285 143q0 -6 -1 -15.5t-8.5 -34t-21 -43.5t-42.5 -34.5t-69 -15.5q32 0 49.5 18t19.5 36l2 17q0 3 0.5 8t4.5 17t10.5 21.5
t21 17.5t34.5 8zM143 286q32 0 49.5 18t19.5 36l2 17v429q0 3 -0.5 7.5t-4.5 17t-10.5 22t-21 17t-34.5 7.5q40 0 69 -14.5t42.5 -35.5t21 -42.5t8.5 -36.5l1 -14v-285q0 -6 -1 -15.5t-8.5 -34t-21 -43.5t-42.5 -34.5t-69 -15.5zM0 714q0 6 1 15.5t8.5 34t21 43.5t43 34.5
t69.5 15.5q-32 0 -50 -17.5t-20 -35.5l-2 -18v-715q0 -3 0.5 -7.5t4.5 -17t10.5 -22t21.5 -17t35 -7.5q-40 0 -69.5 14.5t-43 35.5t-21 42.5t-8.5 35.5l-1 15v571z" />
    <glyph glyph-name="Eacute" unicode="&#xc9;" horiz-adv-x="325" 
d="M143 1000q-3 0 -8 -0.5t-17 -4.5t-21.5 -10.5t-17.5 -21t-8 -34.5q0 40 14.5 69t35.5 42.5t42.5 21t36.5 8.5l14 1q0 -32 -18 -49.5t-36 -19.5zM143 286q32 0 49.5 18t19.5 36l2 17v429q0 3 -0.5 7.5t-4.5 17t-10.5 22t-21 17t-34.5 7.5q40 0 69 -14.5t42.5 -35.5
t21 -42.5t8.5 -36.5l1 -14v-285q0 -6 -1 -15.5t-8.5 -34t-21 -43.5t-42.5 -34.5t-69 -15.5zM285 143q0 -6 -1 -15.5t-8.5 -34t-21 -43.5t-42.5 -34.5t-69 -15.5q32 0 49.5 18t19.5 36l2 17q0 3 0.5 8t4.5 17t10.5 21.5t21 17.5t34.5 8zM0 714q0 6 1 15.5t8.5 34t21 43.5
t43 34.5t69.5 15.5q-32 0 -50 -17.5t-20 -35.5l-2 -18v-715q0 -3 0.5 -7.5t4.5 -17t10.5 -22t21.5 -17t35 -7.5q-40 0 -69.5 14.5t-43 35.5t-21 42.5t-8.5 35.5l-1 15v571z" />
    <glyph glyph-name="Ecircumflex" unicode="&#xca;" 
d="M144 964l-36 -35h-35l71 71l71 -71h-35zM287 143q0 -6 -1 -15.5t-8.5 -34t-21 -43.5t-43 -34.5t-69.5 -15.5q32 0 49.5 18t19.5 36l2 17q0 3 0.5 8t4.5 17t10.5 21.5t21.5 17.5t35 8zM1 714q0 6 1 15.5t8.5 34t21 43.5t43 34.5t69.5 15.5q-32 0 -49.5 -17.5t-19.5 -35.5
l-2 -18v-715q0 -3 0.5 -7.5t4.5 -17t10.5 -22t21 -17t34.5 -7.5q-40 0 -69.5 14.5t-43 35.5t-21 42.5t-8.5 35.5l-1 15v571zM144 286q32 0 49.5 18t19.5 36l2 17v429q0 3 -0.5 7.5t-4.5 17t-10.5 22t-21 17t-34.5 7.5q40 0 69.5 -14.5t43 -35.5t21 -42.5t8.5 -36.5l1 -14
v-285q0 -6 -1 -15.5t-8.5 -34t-21 -43.5t-43 -34.5t-69.5 -15.5z" />
    <glyph glyph-name="Edieresis" unicode="&#xcb;" horiz-adv-x="328" 
d="M38 929q-14 0 -24.5 10.5t-10.5 24.5q0 15 10.5 25.5t24.5 10.5q15 0 25.5 -10.5t10.5 -25.5q0 -14 -10.5 -24.5t-25.5 -10.5zM253 929q-15 0 -25.5 10.5t-10.5 24.5q0 15 10.5 25.5t25.5 10.5q14 0 24.5 -10.5t10.5 -25.5q0 -14 -10.5 -24.5t-24.5 -10.5zM288 143
q0 -6 -1 -15.5t-8.5 -34t-21 -43.5t-42.5 -34.5t-69 -15.5q32 0 49.5 18t19.5 36l2 17q0 3 0.5 8t4.5 17t10.5 21.5t21 17.5t34.5 8zM146 857q40 0 69 -14.5t42.5 -35.5t21 -42.5t8.5 -36.5l1 -14v-285q0 -6 -1 -15.5t-8.5 -34t-21 -43.5t-42.5 -34.5t-69 -15.5
q32 0 49.5 18t19.5 36l2 17v429q0 3 -0.5 7.5t-4.5 17t-10.5 22t-21 17t-34.5 7.5zM3 714q0 6 1 15.5t8.5 34t21 43.5t43 34.5t69.5 15.5q-32 0 -50 -17.5t-20 -35.5l-2 -18v-715q0 -3 0.5 -7.5t4.5 -17t10.5 -22t21.5 -17t35 -7.5q-40 0 -69.5 14.5t-43 35.5t-21 42.5
t-8.5 35.5l-1 15v571z" />
    <glyph glyph-name="Igrave" unicode="&#xcc;" horiz-adv-x="114" 
d="M71 929q-4 0 -9.5 0.5t-17 4.5t-21 11t-16.5 21.5t-7 33.5q16 0 25 -9t10 -18l1 -9q0 -15 8.5 -23.5t15 -10t11.5 -1.5zM0 786q0 3 0.5 7.5t4.5 17t10.5 22t21 17t34.5 7.5v-857h-71v786z" />
    <glyph glyph-name="Iacute" unicode="&#xcd;" horiz-adv-x="114" 
d="M36 964q-15 0 -24 -8.5t-10.5 -15t-1.5 -11.5q0 4 0.5 9.5t4.5 17t11 21t21.5 16.5t33.5 7q0 -16 -8.5 -25t-17.5 -10zM0 786q0 3 0.5 7.5t4.5 17t10.5 22t21 17t34.5 7.5v-857h-71v786z" />
    <glyph glyph-name="Icircumflex" unicode="&#xce;" horiz-adv-x="114" 
d="M36 964l-18 -35h-18l36 71l35 -71h-17zM0 786q0 3 0.5 7.5t4.5 17t10.5 22t21 17t34.5 7.5v-857h-71v786z" />
    <glyph glyph-name="Idieresis" unicode="&#xcf;" horiz-adv-x="114" 
d="M12 976q-12 0 -12 12t12 12t12 -12q0 -4 -4 -8t-8 -4zM60 976q-12 0 -12 12t12 12q11 0 11 -12t-11 -12zM0 786q0 3 0.5 7.5t4.5 17t10.5 22t21 17t34.5 7.5v-857h-71v786z" />
    <glyph glyph-name="Eth" unicode="&#xd0;" horiz-adv-x="398" 
d="M213 857q40 0 69.5 -14.5t43 -35.5t21 -42.5t8.5 -36.5l1 -14v-571q0 -6 -1 -15.5t-8.5 -34t-21 -43.5t-43 -34.5t-69.5 -15.5q32 0 50 18t20 36l2 17v715q0 3 -0.5 7.5t-4.5 17t-10.5 22t-21.5 17t-35 7.5zM142 786v-203h71v-23h-71v-560h-71v560h-71v23h71v274
q3 0 7.5 -0.5t17 -4.5t22 -10.5t17 -21t7.5 -34.5z" />
    <glyph glyph-name="Ntilde" unicode="&#xd1;" horiz-adv-x="328" 
d="M0 857q38 0 57 -26q40 26 86 26q-32 0 -50 -17.5t-20 -35.5l-2 -18v-786h-71v714v1v142zM143 857q40 0 69.5 -14.5t43 -35.5t21 -42.5t8.5 -36.5l1 -14v-714h-72v786q0 3 -0.5 7.5t-4.5 17t-10.5 22t-21 17t-34.5 7.5zM143 964q-3 -5 -4.5 -9t-10.5 -14t-16.5 -12.5
t-19 5.5t-21.5 30q5 11 10.5 15t10 2t8 -5.5t5.5 -7.5l2 -4q17 -38 36 0zM179 964q-17 37 -36 0q1 3 4.5 9.5t11 14.5t15.5 11.5t19 -5t21 -30.5q-5 -11 -10.5 -15t-9.5 -2t-7.5 5.5t-5.5 7.5z" />
    <glyph glyph-name="Ograve" unicode="&#xd2;" 
d="M71 71q0 -3 0.5 -7.5t4.5 -17t10.5 -22t21.5 -17t35 -7.5q-40 0 -69.5 14.5t-43 35.5t-21 42.5t-8.5 35.5l-1 15v571q0 6 1 15.5t8.5 34t21 43.5t43 34.5t69.5 15.5q-32 0 -50 -17.5t-20 -35.5l-2 -18v-715zM143 857q40 0 69 -14.5t42.5 -35.5t21 -42.5t8.5 -36.5l1 -14
v-571q0 -6 -1 -15.5t-8.5 -34t-21 -43.5t-42.5 -34.5t-69 -15.5q32 0 49.5 18t19.5 36l2 17v715q0 3 -0.5 7.5t-4.5 17t-10.5 22t-21 17t-34.5 7.5zM214 929q-40 0 -69.5 14.5t-43 35.5t-21 42t-8.5 35l-1 15q32 0 50 -17.5t20 -35.5l2 -18q0 -3 0.5 -7.5t4.5 -17t10.5 -22
t21 -17t34.5 -7.5z" />
    <glyph glyph-name="Oacute" unicode="&#xd3;" horiz-adv-x="328" 
d="M73 71q0 -3 0.5 -7.5t4.5 -17t10.5 -22t21 -17t34.5 -7.5q-40 0 -69.5 14.5t-43 35.5t-21 42.5t-8.5 35.5l-1 15v571q0 6 1 15.5t8.5 34t21 43.5t43 34.5t69.5 15.5q-32 0 -49.5 -17.5t-19.5 -35.5l-2 -18v-715zM144 857q40 0 69.5 -14.5t43 -35.5t21 -42.5t8.5 -36.5
l1 -14v-571q0 -6 -1 -15.5t-8.5 -34t-21 -43.5t-43 -34.5t-69.5 -15.5q32 0 49.5 18t19.5 36l2 17v715q0 3 -0.5 7.5t-4.5 17t-10.5 22t-21 17t-34.5 7.5zM144 1000q-3 0 -7.5 -0.5t-17 -4.5t-22 -10.5t-17 -21t-7.5 -34.5q0 40 14.5 69t35.5 42.5t42 21t35 8.5l15 1
q0 -32 -17.5 -49.5t-35.5 -19.5z" />
    <glyph glyph-name="Ocircumflex" unicode="&#xd4;" 
d="M71 71q0 -3 0.5 -7.5t4.5 -17t10.5 -22t21.5 -17t35 -7.5q-40 0 -69.5 14.5t-43 35.5t-21 42.5t-8.5 35.5l-1 15v571q0 6 1 15.5t8.5 34t21 43.5t43 34.5t69.5 15.5q-32 0 -50 -17.5t-20 -35.5l-2 -18v-715zM143 857q40 0 69 -14.5t42.5 -35.5t21 -42.5t8.5 -36.5l1 -14
v-571q0 -6 -1 -15.5t-8.5 -34t-21 -43.5t-42.5 -34.5t-69 -15.5q32 0 49.5 18t19.5 36l2 17v715q0 3 -0.5 7.5t-4.5 17t-10.5 22t-21 17t-34.5 7.5zM143 964l-36 -35h-36l72 71l71 -71h-36z" />
    <glyph glyph-name="Otilde" unicode="&#xd5;" 
d="M71 71q0 -3 0.5 -7.5t4.5 -17t10.5 -22t21.5 -17t35 -7.5q-40 0 -69.5 14.5t-43 35.5t-21 42.5t-8.5 35.5l-1 15v571q0 6 1 15.5t8.5 34t21 43.5t43 34.5t69.5 15.5q-32 0 -50 -17.5t-20 -35.5l-2 -18v-715zM143 857q40 0 69 -14.5t42.5 -35.5t21 -42.5t8.5 -36.5l1 -14
v-571q0 -6 -1 -15.5t-8.5 -34t-21 -43.5t-42.5 -34.5t-69 -15.5q32 0 49.5 18t19.5 36l2 17v715q0 3 -0.5 7.5t-4.5 17t-10.5 22t-21 17t-34.5 7.5zM142 964q-2 -5 -5 -10t-11 -14t-16 -11.5t-18.5 5.5t-20.5 30q5 11 10.5 15t10 2t8 -5.5t5.5 -7.5l2 -4q16 -37 35 0z
M178 964q-16 37 -35 0q1 3 4.5 9.5t11 14.5t15.5 11.5t19 -5t21 -30.5q-5 -11 -10.5 -15t-10 -2t-8 5.5t-5.5 7.5z" />
    <glyph glyph-name="Odieresis" unicode="&#xd6;" horiz-adv-x="325" 
d="M70 71q0 -3 0.5 -7.5t4.5 -17t10.5 -22t21 -17t34.5 -7.5q-40 0 -69 14.5t-42.5 35.5t-21 42.5t-8.5 35.5l-1 15v571q0 6 1 15.5t8.5 34t21 43.5t42.5 34.5t69 15.5q-32 0 -49.5 -17.5t-19.5 -35.5l-2 -18v-715zM141 857q40 0 69.5 -14.5t43 -35.5t21 -42.5t8.5 -36.5
l1 -14v-571q0 -6 -1 -15.5t-8.5 -34t-21 -43.5t-43 -34.5t-69.5 -15.5q32 0 49.5 18t19.5 36l2 17v715q0 3 -0.5 7.5t-4.5 17t-10.5 22t-21 17t-34.5 7.5zM34 929q-15 0 -25 10.5t-10 24.5q0 15 10 25.5t25 10.5t25.5 -10.5t10.5 -25.5q0 -14 -10.5 -24.5t-25.5 -10.5z
M248 929q-15 0 -25.5 10.5t-10.5 24.5q0 15 10.5 25.5t25.5 10.5t25.5 -10.5t10.5 -25.5q0 -14 -10.5 -24.5t-25.5 -10.5z" />
    <glyph glyph-name="multiply" unicode="&#xd7;" horiz-adv-x="323" 
d="M71 357q0 -3 0.5 -7.5t4.5 -17t10.5 -22t21.5 -17t35 -7.5q-40 0 -69.5 14.5t-43 35.5t-21 42.5t-8.5 35.5l-1 15q32 0 49.5 -18t19.5 -36zM143 286q40 0 69.5 -14.5t43 -35.5t21 -42.5t8.5 -35.5l1 -15q-32 0 -50 17.5t-20 35.5l-2 18q0 3 -0.5 8t-4.5 17t-10.5 21.5
t-21 17.5t-34.5 8zM0 143q0 6 1 15.5t8.5 34t21 43.5t43 34.5t69.5 15.5q-32 0 -50 -18t-20 -36l-2 -18q0 -3 -0.5 -7.5t-4.5 -17t-10.5 -22t-21 -17t-34.5 -7.5zM286 429q0 -6 -1 -15.5t-8.5 -34t-21 -43.5t-43 -34.5t-69.5 -15.5q32 0 49.5 18t19.5 36l2 17q0 3 0.5 8
t4.5 17t10.5 21.5t21.5 17.5t35 8z" />
    <glyph glyph-name="Oslash" unicode="&#xd8;" horiz-adv-x="325" 
d="M224 833q60 -37 60 -119v-571q0 -6 -1 -15.5t-8.5 -34t-21 -43.5t-43 -34.5t-69.5 -15.5q32 0 49.5 18t19.5 36l2 17v695l-130 -738q21 -28 59 -28q-13 0 -28 3t-24 7l-9 3l-3 -13h-23l4 24q-59 37 -59 119v571q0 6 1 15.5t8.5 34t21 43.5t42.5 34.5t69 15.5
q-32 0 -49.5 -17.5t-19.5 -35.5l-2 -18v-695l130 738q-21 28 -59 28q13 0 28 -3.5t24 -6.5l9 -3l3 13h23z" />
    <glyph glyph-name="Ugrave" unicode="&#xd9;" horiz-adv-x="325" 
d="M212 929q-40 0 -69 14.5t-42.5 35.5t-21 42t-8.5 35l-1 15q32 0 49.5 -17.5t19.5 -35.5l2 -18q0 -3 0.5 -7.5t4.5 -17t10.5 -22t21 -17t34.5 -7.5zM212 786q0 3 0.5 7.5t4.5 17t10.5 22t21.5 17t35 7.5v-714q0 -6 -1 -15.5t-8.5 -34t-21 -43.5t-43 -34.5t-69.5 -15.5
q32 0 49.5 18t19.5 36l2 17v715zM70 71q0 -3 0.5 -7.5t4.5 -17t10.5 -22t21 -17t34.5 -7.5q-40 0 -69 14.5t-42.5 35.5t-21 42.5t-8.5 35.5l-1 15v714q32 0 49.5 -17.5t19.5 -35.5l2 -18v-715z" />
    <glyph glyph-name="Uacute" unicode="&#xda;" horiz-adv-x="325" 
d="M141 1000q-3 0 -7.5 -0.5t-17 -4.5t-22 -10.5t-17 -21t-7.5 -34.5q0 40 14.5 69t35.5 42.5t42 21t36 8.5l14 1q0 -32 -18 -49.5t-36 -19.5zM212 786q0 3 0.5 7.5t4.5 17t10.5 22t21.5 17t35 7.5v-714q0 -6 -1 -15.5t-8.5 -34t-21 -43.5t-43 -34.5t-69.5 -15.5
q32 0 49.5 18t19.5 36l2 17v715zM70 71q0 -3 0.5 -7.5t4.5 -17t10.5 -22t21 -17t34.5 -7.5q-40 0 -69 14.5t-42.5 35.5t-21 42.5t-8.5 35.5l-1 15v714q32 0 49.5 -17.5t19.5 -35.5l2 -18v-715z" />
    <glyph glyph-name="Ucircumflex" unicode="&#xdb;" horiz-adv-x="328" 
d="M144 964l-36 -35h-35l71 71l71 -71h-35zM215 786q0 3 0.5 7.5t4.5 17t10.5 22t21.5 17t35 7.5v-714q0 -6 -1 -15.5t-8.5 -34t-21 -43.5t-43 -34.5t-69.5 -15.5q32 0 49.5 18t19.5 36l2 17v715zM73 71q0 -3 0.5 -7.5t4.5 -17t10.5 -22t21 -17t34.5 -7.5q-40 0 -69.5 14.5
t-43 35.5t-21 42.5t-8.5 35.5l-1 15v714q32 0 50 -17.5t20 -35.5l2 -18v-715z" />
    <glyph glyph-name="Udieresis" unicode="&#xdc;" 
d="M35 929q-14 0 -24.5 10.5t-10.5 24.5q0 15 10.5 25.5t24.5 10.5q15 0 25.5 -10.5t10.5 -25.5q0 -14 -10.5 -24.5t-25.5 -10.5zM250 929q-15 0 -25.5 10.5t-10.5 24.5q0 15 10.5 25.5t25.5 10.5q14 0 24.5 -10.5t10.5 -25.5q0 -14 -10.5 -24.5t-24.5 -10.5zM214 786
q0 3 0.5 7.5t4.5 17t10.5 22t21 17t34.5 7.5v-714q0 -6 -1 -15.5t-8.5 -34t-21 -43.5t-42.5 -34.5t-69 -15.5q32 0 49.5 18t19.5 36l2 17v715zM71 71q0 -3 0.5 -7.5t4.5 -17t10.5 -22t21.5 -17t35 -7.5q-40 0 -69.5 14.5t-43 35.5t-21 42.5t-8.5 35.5l-1 15v714
q32 0 49.5 -17.5t19.5 -35.5l2 -18v-715z" />
    <glyph glyph-name="Yacute" unicode="&#xdd;" 
d="M143 1000q-3 0 -8 -0.5t-17 -4.5t-21.5 -10.5t-17.5 -21t-8 -34.5q0 40 14.5 69t35.5 42.5t42.5 21t36.5 8.5l14 1q0 -32 -18 -49.5t-36 -19.5zM214 786q0 3 0.5 7.5t4.5 17t10.5 22t21 17t34.5 7.5v-714q0 -6 -1 -15.5t-8.5 -34t-21 -43.5t-42.5 -34.5t-69 -15.5
q32 0 49.5 18t19.5 36l2 17v715zM143 286q-40 0 -69.5 14.5t-43 35.5t-21 42.5t-8.5 35.5l-1 15v428q32 0 49.5 -17.5t19.5 -35.5l2 -18v-429q0 -3 0.5 -7.5t4.5 -17t10.5 -22t21.5 -17t35 -7.5zM71 71q0 -3 0.5 -7.5t4.5 -17t10.5 -22t21.5 -17t35 -7.5q-40 0 -69.5 14.5
t-43 35.5t-21 42.5t-8.5 35.5l-1 15q32 0 49.5 -18t19.5 -36z" />
    <glyph glyph-name="Thorn" unicode="&#xde;" horiz-adv-x="325" 
d="M143 571q40 0 69 -14.5t42.5 -35.5t21 -42t8.5 -35l1 -15v-286q0 -6 -1 -15.5t-8.5 -34t-21 -43.5t-42.5 -34.5t-69 -15.5q32 0 49.5 18t19.5 36l2 17v429q0 3 -0.5 7.5t-4.5 17t-10.5 22t-21 17t-34.5 7.5zM71 786v-232q36 17 72 17q-32 0 -50 -17.5t-20 -35.5l-2 -18
v-429v-356h-71v1142q32 0 49.5 -17.5t19.5 -35.5z" />
    <glyph glyph-name="germandbls" unicode="&#xdf;" horiz-adv-x="469" 
d="M214 786q0 32 -18 49.5t-36 19.5l-18 2q6 0 15.5 -1t34 -8.5t43.5 -21t34.5 -43t15.5 -69.5v-71q0 -3 0.5 -8t4.5 -17t10.5 -21.5t21 -17.5t34.5 -8q-40 0 -69 14.5t-42.5 35.5t-21 42t-8.5 35l-1 15v1v72zM0 714q0 40 14.5 69.5t35.5 43t42 21t36 8.5l14 1
q-3 0 -7.5 -0.5t-17 -4.5t-22 -10.5t-17 -21t-7.5 -34.5v-1071h-71v999zM214 71q0 -3 0.5 -7.5t4.5 -17t10.5 -22t21 -17t34.5 -7.5q-40 0 -69.5 14.5t-43 35.5t-21 42.5t-8.5 35.5l-1 15q32 0 50 -18t20 -36zM285 571q40 0 69.5 -14.5t43 -35.5t21 -42t8.5 -35l1 -15v-286
q0 -6 -1 -15.5t-8.5 -34t-21 -43.5t-43 -34.5t-69.5 -15.5q32 0 49.5 18t19.5 36l2 17v429q0 3 -0.5 7.5t-4.5 17t-10.5 22t-21 17t-34.5 7.5z" />
    <glyph glyph-name="agrave" unicode="&#xe0;" horiz-adv-x="326" 
d="M214 643q-40 0 -69.5 14.5t-43 35.5t-21 42.5t-8.5 36.5l-1 14q32 0 50 -18t20 -36l2 -18q0 -3 0.5 -7.5t4.5 -17t10.5 -22t21 -17t34.5 -7.5zM143 571q40 0 69 -14.5t42.5 -35.5t21 -42t8.5 -35l1 -15v-286q0 -6 -1 -15.5t-8.5 -34t-21 -43.5t-42.5 -34.5t-69 -15.5
q32 0 49.5 18t19.5 36l2 17v429q0 3 -0.5 7.5t-4.5 17t-10.5 22t-21 17t-34.5 7.5zM71 71q0 -3 0.5 -7.5t4.5 -17t10.5 -22t21.5 -17t35 -7.5q-40 0 -69.5 14.5t-43 35.5t-21 42.5t-8.5 35.5l-1 15v71q0 6 1 15.5t8.5 34t21 43.5t43 34.5t69.5 15.5q-32 0 -50 -17.5
t-20 -35.5l-2 -18v-215zM0 429q0 6 1 15.5t8.5 34t21 43t43 34t69.5 15.5q-32 0 -50 -17.5t-20 -35.5l-2 -18q0 -3 -0.5 -7.5t-4.5 -17t-10.5 -22t-21 -17t-34.5 -7.5z" />
    <glyph glyph-name="aacute" unicode="&#xe1;" horiz-adv-x="325" 
d="M141 714q-3 0 -7.5 -0.5t-17 -4.5t-22 -10.5t-17 -21t-7.5 -34.5q0 40 14.5 69.5t35.5 43t42 21t36 8.5l14 1q0 -32 -18 -50t-36 -20zM70 71q0 -3 0.5 -7.5t4.5 -17t10.5 -22t21 -17t34.5 -7.5q-40 0 -69 14.5t-42.5 35.5t-21 42.5t-8.5 35.5l-1 15v71q0 6 1 15.5t8.5 34
t21 43.5t42.5 34.5t69 15.5q-32 0 -49.5 -17.5t-19.5 -35.5l-2 -18v-215zM-1 429q0 6 1 15.5t8.5 34t21 43t42.5 34t69 15.5q-32 0 -49.5 -17.5t-19.5 -35.5l-2 -18q0 -3 -0.5 -7.5t-4.5 -17t-10.5 -22t-21 -17t-34.5 -7.5zM141 571q40 0 69.5 -14.5t43 -35.5t21 -42
t8.5 -35l1 -15v-286q0 -6 -1 -15.5t-8.5 -34t-21 -43.5t-43 -34.5t-69.5 -15.5q32 0 49.5 18t19.5 36l2 17v429q0 3 -0.5 7.5t-4.5 17t-10.5 22t-21 17t-34.5 7.5z" />
    <glyph glyph-name="acircumflex" unicode="&#xe2;" horiz-adv-x="326" 
d="M143 679l-36 -36h-36l72 71l71 -71h-36zM143 571q40 0 69 -14.5t42.5 -35.5t21 -42t8.5 -35l1 -15v-286q0 -6 -1 -15.5t-8.5 -34t-21 -43.5t-42.5 -34.5t-69 -15.5q32 0 49.5 18t19.5 36l2 17v429q0 3 -0.5 7.5t-4.5 17t-10.5 22t-21 17t-34.5 7.5zM0 429q0 6 1 15.5
t8.5 34t21 43t43 34t69.5 15.5q-32 0 -50 -17.5t-20 -35.5l-2 -18q0 -3 -0.5 -7.5t-4.5 -17t-10.5 -22t-21 -17t-34.5 -7.5zM71 71q0 -3 0.5 -7.5t4.5 -17t10.5 -22t21.5 -17t35 -7.5q-40 0 -69.5 14.5t-43 35.5t-21 42.5t-8.5 35.5l-1 15v71q0 6 1 15.5t8.5 34t21 43.5
t43 34.5t69.5 15.5q-32 0 -50 -17.5t-20 -35.5l-2 -18v-215z" />
    <glyph glyph-name="atilde" unicode="&#xe3;" horiz-adv-x="326" 
d="M142 678q-2 -5 -5 -10t-11 -14t-16 -11t-18.5 6t-20.5 29q5 11 10.5 15t10 2t8 -5.5t5.5 -7.5l2 -4q17 -37 35 0zM178 678q-5 11 -10 15t-9 2.5t-8 -5.5t-5.5 -7l-2.5 -5q1 3 4.5 9.5t11 14.5t15.5 11.5t19 -5t21 -30.5q-5 -11 -10.5 -15t-10 -2t-8 5.5t-5.5 7.5z
M143 571q40 0 69 -14.5t42.5 -35.5t21 -42t8.5 -35l1 -15v-286q0 -6 -1 -15.5t-8.5 -34t-21 -43.5t-42.5 -34.5t-69 -15.5q32 0 49.5 18t19.5 36l2 17v429q0 3 -0.5 7.5t-4.5 17t-10.5 22t-21 17t-34.5 7.5zM0 429q0 6 1 15.5t8.5 34t21 43t43 34t69.5 15.5q-32 0 -50 -17.5
t-20 -35.5l-2 -18q0 -3 -0.5 -7.5t-4.5 -17t-10.5 -22t-21 -17t-34.5 -7.5zM71 71q0 -3 0.5 -7.5t4.5 -17t10.5 -22t21.5 -17t35 -7.5q-40 0 -69.5 14.5t-43 35.5t-21 42.5t-8.5 35.5l-1 15v71q0 6 1 15.5t8.5 34t21 43.5t43 34.5t69.5 15.5q-32 0 -50 -17.5t-20 -35.5
l-2 -18v-215z" />
    <glyph glyph-name="adieresis" unicode="&#xe4;" 
d="M37 643q-15 0 -25.5 10.5t-10.5 25.5q0 14 10.5 24.5t25.5 10.5t25.5 -10.5t10.5 -24.5q0 -15 -10.5 -25.5t-25.5 -10.5zM251 643q-15 0 -25.5 10.5t-10.5 25.5q0 14 10.5 24.5t25.5 10.5t25.5 -10.5t10.5 -24.5q0 -15 -10.5 -25.5t-25.5 -10.5zM1 429q0 6 1 15.5t8.5 34
t21 43t43 34t69.5 15.5q-32 0 -49.5 -17.5t-19.5 -35.5l-2 -18q0 -3 -0.5 -7.5t-4.5 -17t-10.5 -22t-21.5 -17t-35 -7.5zM73 71q0 -3 0.5 -7.5t4.5 -17t10.5 -22t21 -17t34.5 -7.5q-40 0 -69.5 14.5t-43 35.5t-21 42.5t-8.5 35.5l-1 15v71q0 6 1 15.5t8.5 34t21 43.5
t43 34.5t69.5 15.5q-32 0 -49.5 -17.5t-19.5 -35.5l-2 -18v-215zM144 571q40 0 69.5 -14.5t43 -35.5t21 -42t8.5 -35l1 -15v-286q0 -6 -1 -15.5t-8.5 -34t-21 -43.5t-43 -34.5t-69.5 -15.5q32 0 49.5 18t19.5 36l2 17v429q0 3 -0.5 7.5t-4.5 17t-10.5 22t-21 17t-34.5 7.5z
" />
    <glyph glyph-name="aring" unicode="&#xe5;" horiz-adv-x="326" 
d="M71 71q0 -3 0.5 -7.5t4.5 -17t10.5 -22t21.5 -17t35 -7.5q-40 0 -69.5 14.5t-43 35.5t-21 42.5t-8.5 35.5l-1 15v71q0 6 1 15.5t8.5 34t21 43.5t43 34.5t69.5 15.5q-32 0 -50 -17.5t-20 -35.5l-2 -18v-215zM0 429q0 6 1 15.5t8.5 34t21 43t43 34t69.5 15.5
q-32 0 -50 -17.5t-20 -35.5l-2 -18q0 -3 -0.5 -7.5t-4.5 -17t-10.5 -22t-21 -17t-34.5 -7.5zM143 571q40 0 69 -14.5t42.5 -35.5t21 -42t8.5 -35l1 -15v-286q0 -6 -1 -15.5t-8.5 -34t-21 -43.5t-42.5 -34.5t-69 -15.5q32 0 49.5 18t19.5 36l2 17v429q0 3 -0.5 7.5t-4.5 17
t-10.5 22t-21 17t-34.5 7.5zM143 643q5 0 11.5 1.5t15 10.5t8.5 24v71q0 15 -8.5 24t-15 10.5t-11.5 1.5q8 0 21 -2.5t31.5 -20.5t18.5 -49q0 -19 -7 -33.5t-16.5 -21.5t-21 -11t-17 -4.5t-9.5 -0.5zM142 643q-4 0 -9.5 0.5t-17 4.5t-21 11t-16.5 21.5t-7 33.5q0 31 18.5 49
t31.5 20.5t21 2.5q-5 0 -11.5 -1.5t-15 -10.5t-8.5 -24v-71q0 -15 8.5 -24t15 -10.5t11.5 -1.5z" />
    <glyph glyph-name="ae" unicode="&#xe6;" horiz-adv-x="526" 
d="M-1 429q0 6 1 15.5t8.5 34t21 43t42.5 34t69 15.5q-32 0 -49.5 -17.5t-19.5 -35.5l-2 -18q0 -3 -0.5 -7.5t-4.5 -17t-10.5 -22t-21 -17t-34.5 -7.5zM70 71q0 -3 0.5 -7.5t4.5 -17t10.5 -22t21 -17t34.5 -7.5q-40 0 -69 14.5t-42.5 35.5t-21 42.5t-8.5 35.5l-1 15v71
q0 6 1 15.5t8.5 34t21 43.5t42.5 34.5t69 15.5q-32 0 -49.5 -17.5t-19.5 -35.5l-2 -18v-215zM498 143q0 -6 -1 -15.5t-8.5 -34t-21 -43.5t-43 -34.5t-69.5 -15.5q32 0 50 18t20 36l2 17q0 3 0.5 8t4.5 17t10.5 21.5t21 17.5t34.5 8zM355 571q40 0 69.5 -14.5t43 -35.5
t21 -42t8.5 -35l1 -15v0q0 -6 -1 -15.5t-8.5 -34t-21 -43.5t-43 -34.5t-69.5 -15.5q32 0 50 18t20 36l2 17v143q0 3 -0.5 7.5t-4.5 17t-10.5 22t-21.5 17t-35 7.5zM141 571q29 0 55.5 -10.5t39.5 -21.5l12 -11q5 5 13.5 12t36.5 19t57 12q-32 0 -49.5 -17.5t-19.5 -35.5
l-2 -18v-429q0 -3 0.5 -7.5t4.5 -17t10.5 -22t21 -17t34.5 -7.5q-29 0 -55.5 11t-39.5 22l-12 11q-5 -5 -13.5 -12.5t-36.5 -19.5t-57 -12q32 0 49.5 18t19.5 36l2 17v429q0 3 -0.5 7.5t-4.5 17t-10.5 22t-21 17t-34.5 7.5z" />
    <glyph glyph-name="ccedilla" unicode="&#xe7;" horiz-adv-x="308" 
d="M146 0q9 0 21.5 -2t31 -19.5t18.5 -48.5q0 -20 -7 -34.5t-16.5 -21.5t-21 -11t-17 -4.5t-9.5 -0.5q4 0 10.5 1.5t15.5 10.5t9 24v71q0 15 -9 24t-15 10t-11 1zM109 -106q0 -15 9 -24t15.5 -10.5t11.5 -1.5q-4 0 -9.5 0.5t-17 4.5t-21 11t-16.5 21.5t-7 34.5q16 0 24.5 -9
t9.5 -18zM217 500q0 3 -0.5 7.5t-4.5 17t-10.5 22t-21.5 17t-35 7.5q40 0 69.5 -14.5t43 -35.5t21 -42t8.5 -35l1 -15q-32 0 -49.5 17.5t-19.5 35.5zM74 71q0 -3 0.5 -7.5t4.5 -17t10.5 -22t21 -17t34.5 -7.5q-40 0 -69.5 14.5t-43 35.5t-21 42.5t-8.5 35.5l-1 15v286
q0 6 1 15.5t8.5 34t21 43t43 34t69.5 15.5q-32 0 -49.5 -17.5t-19.5 -35.5l-2 -18v-429zM217 71q0 3 0.5 8t4.5 17t10.5 21.5t21 17.5t34.5 8q0 -6 -1 -15.5t-8.5 -34t-21 -43.5t-43 -34.5t-69.5 -15.5q32 0 50 18t20 36z" />
    <glyph glyph-name="egrave" unicode="&#xe8;" horiz-adv-x="324" 
d="M217 643q-40 0 -69.5 14.5t-43 35.5t-21 42.5t-8.5 36.5l-1 14q32 0 50 -18t20 -36l2 -18q0 -3 0.5 -7.5t4.5 -17t10.5 -22t21 -17t34.5 -7.5zM288 143q0 -6 -1 -15.5t-8.5 -34t-21 -43.5t-42.5 -34.5t-69 -15.5q32 0 49.5 18t19.5 36l2 17q0 3 0.5 8t4.5 17t10.5 21.5
t21 17.5t34.5 8zM3 429q0 6 1 15.5t8.5 34t21 43t43 34t69.5 15.5q-32 0 -50 -17.5t-20 -35.5l-2 -18v-429q0 -3 0.5 -7.5t4.5 -17t10.5 -22t21.5 -17t35 -7.5q-40 0 -69.5 14.5t-43 35.5t-21 42.5t-8.5 35.5l-1 15v286zM146 214q32 0 49.5 18t19.5 36l2 18v214
q0 3 -0.5 7.5t-4.5 17t-10.5 22t-21 17t-34.5 7.5q40 0 69 -14.5t42.5 -35.5t21 -42t8.5 -35l1 -15v-72q0 -6 -1 -15.5t-8.5 -34t-21 -43.5t-42.5 -34.5t-69 -15.5z" />
    <glyph glyph-name="eacute" unicode="&#xe9;" horiz-adv-x="319" 
d="M141 714q-3 0 -7.5 -0.5t-17 -4.5t-22 -10.5t-17 -21t-7.5 -34.5q0 40 14.5 69.5t35.5 43t42 21t36 8.5l14 1q0 -32 -18 -50t-36 -20zM284 143q0 -6 -1 -15.5t-8.5 -34t-21 -43.5t-43 -34.5t-69.5 -15.5q32 0 49.5 18t19.5 36l2 17q0 3 0.5 8t4.5 17t10.5 21.5t21.5 17.5
t35 8zM141 214q32 0 49.5 18t19.5 36l2 18v214q0 3 -0.5 7.5t-4.5 17t-10.5 22t-21 17t-34.5 7.5q40 0 69.5 -14.5t43 -35.5t21 -42t8.5 -35l1 -15v-72q0 -6 -1 -15.5t-8.5 -34t-21 -43.5t-43 -34.5t-69.5 -15.5zM-1 429q0 6 1 15.5t8.5 34t21 43t42.5 34t69 15.5
q-32 0 -49.5 -17.5t-19.5 -35.5l-2 -18v-429q0 -3 0.5 -7.5t4.5 -17t10.5 -22t21 -17t34.5 -7.5q-40 0 -69 14.5t-42.5 35.5t-21 42.5t-8.5 35.5l-1 15v286z" />
    <glyph glyph-name="ecircumflex" unicode="&#xea;" horiz-adv-x="318" 
d="M141 679l-36 -36h-35l71 71l71 -71h-35zM284 143q0 -6 -1 -15.5t-8.5 -34t-21 -43.5t-43 -34.5t-69.5 -15.5q32 0 49.5 18t19.5 36l2 17q0 3 0.5 8t4.5 17t10.5 21.5t21.5 17.5t35 8zM141 214q32 0 49.5 18t19.5 36l2 18v214q0 3 -0.5 7.5t-4.5 17t-10.5 22t-21 17
t-34.5 7.5q40 0 69.5 -14.5t43 -35.5t21 -42t8.5 -35l1 -15v-72q0 -6 -1 -15.5t-8.5 -34t-21 -43.5t-43 -34.5t-69.5 -15.5zM-1 429q0 6 1 15.5t8.5 34t21 43t42.5 34t69 15.5q-32 0 -49.5 -17.5t-19.5 -35.5l-2 -18v-429q0 -3 0.5 -7.5t4.5 -17t10.5 -22t21 -17t34.5 -7.5
q-40 0 -69 14.5t-42.5 35.5t-21 42.5t-8.5 35.5l-1 15v286z" />
    <glyph glyph-name="edieresis" unicode="&#xeb;" horiz-adv-x="321" 
d="M35 643q-14 0 -24.5 10.5t-10.5 25.5q0 14 10.5 24.5t24.5 10.5q15 0 25.5 -10.5t10.5 -24.5q0 -15 -10.5 -25.5t-25.5 -10.5zM250 643q-15 0 -25.5 10.5t-10.5 25.5q0 14 10.5 24.5t25.5 10.5q14 0 24.5 -10.5t10.5 -24.5q0 -15 -10.5 -25.5t-24.5 -10.5zM285 143
q0 -6 -1 -15.5t-8.5 -34t-21 -43.5t-42.5 -34.5t-69 -15.5q32 0 49.5 18t19.5 36l2 17q0 3 0.5 8t4.5 17t10.5 21.5t21 17.5t34.5 8zM143 571q40 0 69 -14.5t42.5 -35.5t21 -42t8.5 -35l1 -15v-72q0 -6 -1 -15.5t-8.5 -34t-21 -43.5t-42.5 -34.5t-69 -15.5q32 0 49.5 18
t19.5 36l2 18v214q0 3 -0.5 7.5t-4.5 17t-10.5 22t-21 17t-34.5 7.5zM0 429q0 6 1 15.5t8.5 34t21 43t43 34t69.5 15.5q-32 0 -50 -17.5t-20 -35.5l-2 -18v-429q0 -3 0.5 -7.5t4.5 -17t10.5 -22t21.5 -17t35 -7.5q-40 0 -69.5 14.5t-43 35.5t-21 42.5t-8.5 35.5l-1 15v286z
" />
    <glyph glyph-name="igrave" unicode="&#xec;" horiz-adv-x="113" 
d="M71 643q-4 0 -9.5 0.5t-17 4.5t-21 11t-16.5 21.5t-7 33.5q16 0 25 -8.5t10 -17.5l1 -9q0 -15 8.5 -24t15 -10.5t11.5 -1.5zM0 500q0 3 0.5 7.5t4.5 17t10.5 22t21 17t34.5 7.5v-571h-71v500z" />
    <glyph glyph-name="iacute" unicode="&#xed;" horiz-adv-x="113" 
d="M36 679q-15 0 -24 -9t-10.5 -15.5t-1.5 -11.5q0 4 0.5 9.5t4.5 17t11 21t21.5 16.5t33.5 7q0 -16 -8.5 -24.5t-17.5 -9.5zM0 500q0 3 0.5 7.5t4.5 17t10.5 22t21 17t34.5 7.5v-571h-71v500z" />
    <glyph glyph-name="icircumflex" unicode="&#xee;" horiz-adv-x="113" 
d="M36 679l-18 -36h-18l36 71l35 -71h-17zM0 500q0 3 0.5 7.5t4.5 17t10.5 22t21 17t34.5 7.5v-571h-71v500z" />
    <glyph glyph-name="idieresis" unicode="&#xef;" horiz-adv-x="113" 
d="M12 690q-12 0 -12 12t12 12t12 -12q0 -4 -4 -8t-8 -4zM60 690q-12 0 -12 12t12 12q11 0 11 -12t-11 -12zM0 500q0 3 0.5 7.5t4.5 17t10.5 22t21 17t34.5 7.5v-571h-71v500z" />
    <glyph glyph-name="eth" unicode="&#xf0;" horiz-adv-x="384" 
d="M284 440h71v-23h-71v-274q0 -6 -1 -15.5t-8.5 -34t-21 -43.5t-43 -34.5t-69.5 -15.5q32 0 49.5 18t19.5 36l2 17v346h-71v23h71v346q0 32 18 49.5t36 19.5l18 2v-417zM70 71q0 -3 0.5 -7.5t4.5 -17t10.5 -22t21 -17t34.5 -7.5q-40 0 -69 14.5t-42.5 35.5t-21 42.5
t-8.5 35.5l-1 15v286q0 6 1 15.5t8.5 34t21 43t42.5 34t69 15.5q-32 0 -49.5 -17.5t-19.5 -35.5l-2 -18v-429z" />
    <glyph glyph-name="ntilde" unicode="&#xf1;" 
d="M142 678q-2 -5 -5 -10t-11 -14t-16 -11t-18.5 6t-20.5 29q5 11 10.5 15t10 2t8 -5.5t5.5 -7.5l2 -4q17 -37 35 0zM178 678q-5 11 -10.5 15t-9.5 2.5t-8 -5.5t-5.5 -7l-2.5 -5l4.5 9t11 15t16 11.5t19.5 -5t21 -30.5q-5 -11 -10.5 -15t-10 -2t-8 5.5t-5.5 7.5zM142 571
q40 0 69.5 -14.5t43 -35.5t21 -42.5t8.5 -36.5l1 -14v-428h-71v500q0 3 -0.5 7.5t-4.5 17t-10.5 22t-21.5 17t-35 7.5zM0 571q37 0 56 -26q40 26 86 26q-32 0 -49.5 -17.5t-19.5 -35.5l-2 -18v-500h-71v428v1v142z" />
    <glyph glyph-name="ograve" unicode="&#xf2;" horiz-adv-x="325" 
d="M212 643q-40 0 -69 14.5t-42.5 35.5t-21 42.5t-8.5 36.5l-1 14q32 0 49.5 -18t19.5 -36l2 -18q0 -3 0.5 -7.5t4.5 -17t10.5 -22t21 -17t34.5 -7.5zM141 571q40 0 69.5 -14.5t43 -35.5t21 -42t8.5 -35l1 -15v-286q0 -6 -1 -15.5t-8.5 -34t-21 -43.5t-43 -34.5t-69.5 -15.5
q32 0 49.5 18t19.5 36l2 17v429q0 3 -0.5 7.5t-4.5 17t-10.5 22t-21 17t-34.5 7.5zM70 71q0 -3 0.5 -7.5t4.5 -17t10.5 -22t21 -17t34.5 -7.5q-40 0 -69 14.5t-42.5 35.5t-21 42.5t-8.5 35.5l-1 15v286q0 6 1 15.5t8.5 34t21 43t42.5 34t69 15.5q-32 0 -49.5 -17.5
t-19.5 -35.5l-2 -18v-429z" />
    <glyph glyph-name="oacute" unicode="&#xf3;" horiz-adv-x="326" 
d="M143 714q-3 0 -8 -0.5t-17 -4.5t-21.5 -10.5t-17.5 -21t-8 -34.5q0 40 14.5 69.5t35.5 43t42.5 21t36.5 8.5l14 1q0 -32 -18 -50t-36 -20zM71 71q0 -3 0.5 -7.5t4.5 -17t10.5 -22t21.5 -17t35 -7.5q-40 0 -69.5 14.5t-43 35.5t-21 42.5t-8.5 35.5l-1 15v286q0 6 1 15.5
t8.5 34t21 43t43 34t69.5 15.5q-32 0 -50 -17.5t-20 -35.5l-2 -18v-429zM143 571q40 0 69 -14.5t42.5 -35.5t21 -42t8.5 -35l1 -15v-286q0 -6 -1 -15.5t-8.5 -34t-21 -43.5t-42.5 -34.5t-69 -15.5q32 0 49.5 18t19.5 36l2 17v429q0 3 -0.5 7.5t-4.5 17t-10.5 22t-21 17
t-34.5 7.5z" />
    <glyph glyph-name="ocircumflex" unicode="&#xf4;" horiz-adv-x="325" 
d="M141 679l-36 -36h-35l71 71l71 -71h-35zM141 571q40 0 69.5 -14.5t43 -35.5t21 -42t8.5 -35l1 -15v-286q0 -6 -1 -15.5t-8.5 -34t-21 -43.5t-43 -34.5t-69.5 -15.5q32 0 49.5 18t19.5 36l2 17v429q0 3 -0.5 7.5t-4.5 17t-10.5 22t-21 17t-34.5 7.5zM70 71q0 -3 0.5 -7.5
t4.5 -17t10.5 -22t21 -17t34.5 -7.5q-40 0 -69 14.5t-42.5 35.5t-21 42.5t-8.5 35.5l-1 15v286q0 6 1 15.5t8.5 34t21 43t42.5 34t69 15.5q-32 0 -49.5 -17.5t-19.5 -35.5l-2 -18v-429z" />
    <glyph glyph-name="otilde" unicode="&#xf5;" horiz-adv-x="325" 
d="M141 678q-2 -5 -5 -10t-11 -14t-16 -11t-18.5 6t-20.5 29q8 18 16.5 18t13.5 -9l5 -9q18 -37 36 0zM177 678q-5 11 -10.5 15t-9.5 2.5t-8 -5.5t-5.5 -7l-2.5 -5q1 3 4.5 9.5t11 14.5t15.5 11.5t19 -5t21 -30.5q-8 -18 -16.5 -18t-13.5 9zM141 571q40 0 69.5 -14.5
t43 -35.5t21 -42t8.5 -35l1 -15v-286q0 -6 -1 -15.5t-8.5 -34t-21 -43.5t-43 -34.5t-69.5 -15.5q32 0 49.5 18t19.5 36l2 17v429q0 3 -0.5 7.5t-4.5 17t-10.5 22t-21 17t-34.5 7.5zM70 71q0 -3 0.5 -7.5t4.5 -17t10.5 -22t21 -17t34.5 -7.5q-40 0 -69 14.5t-42.5 35.5
t-21 42.5t-8.5 35.5l-1 15v286q0 6 1 15.5t8.5 34t21 43t42.5 34t69 15.5q-32 0 -49.5 -17.5t-19.5 -35.5l-2 -18v-429z" />
    <glyph glyph-name="odieresis" unicode="&#xf6;" 
d="M37 643q-15 0 -25.5 10.5t-10.5 25.5q0 14 10.5 24.5t25.5 10.5t25.5 -10.5t10.5 -24.5q0 -15 -10.5 -25.5t-25.5 -10.5zM251 643q-15 0 -25.5 10.5t-10.5 25.5q0 14 10.5 24.5t25.5 10.5t25.5 -10.5t10.5 -24.5q0 -15 -10.5 -25.5t-25.5 -10.5zM144 571q40 0 69.5 -14.5
t43 -35.5t21 -42t8.5 -35l1 -15v-286q0 -6 -1 -15.5t-8.5 -34t-21 -43.5t-43 -34.5t-69.5 -15.5q32 0 49.5 18t19.5 36l2 17v429q0 3 -0.5 7.5t-4.5 17t-10.5 22t-21 17t-34.5 7.5zM73 71q0 -3 0.5 -7.5t4.5 -17t10.5 -22t21 -17t34.5 -7.5q-40 0 -69.5 14.5t-43 35.5
t-21 42.5t-8.5 35.5l-1 15v286q0 6 1 15.5t8.5 34t21 43t43 34t69.5 15.5q-32 0 -49.5 -17.5t-19.5 -35.5l-2 -18v-429z" />
    <glyph glyph-name="divide" unicode="&#xf7;" horiz-adv-x="306" 
d="M143 357q-15 0 -25.5 10.5t-10.5 25.5t10.5 25.5t25.5 10.5t25.5 -10.5t10.5 -25.5t-10.5 -25.5t-25.5 -10.5zM143 214q15 0 25.5 -10.5t10.5 -24.5q0 -15 -10.5 -25.5t-25.5 -10.5t-25.5 10.5t-10.5 25.5q0 14 10.5 24.5t25.5 10.5zM0 314h286v-57h-286v57z" />
    <glyph glyph-name="oslash" unicode="&#xf8;" horiz-adv-x="326" 
d="M203 559q82 -34 82 -130v-286q0 -6 -1 -15.5t-8.5 -34t-21 -43.5t-42.5 -34.5t-69 -15.5q32 0 49.5 18t19.5 36l2 17v429q0 26 -14 45l-94 -535q18 -10 37 -10l-38 5l-14 -75h-23l14 83q-82 34 -82 130v286q0 6 1 15.5t8.5 34t21 43t43 34t69.5 15.5q-32 0 -50 -17.5
t-20 -35.5l-2 -18v-429q0 -27 14 -44l94 535q-18 9 -36 9l37 -5l14 77h23z" />
    <glyph glyph-name="ugrave" unicode="&#xf9;" horiz-adv-x="328" 
d="M143 714q0 -3 0.5 -7.5t4.5 -17t10.5 -22t21 -17t34.5 -7.5q-40 0 -69 14.5t-42.5 35.5t-21 42.5t-8.5 36.5l-1 14q32 0 49.5 -18t19.5 -36zM72 71q0 -3 0.5 -7.5t4.5 -17t10.5 -22t21 -17t34.5 -7.5q-40 0 -69.5 14.5t-43 35.5t-21 42.5t-8.5 35.5l-1 15v428
q32 0 50 -17.5t20 -35.5l2 -18v-429zM215 500q0 3 0.5 7.5t4.5 17t10.5 22t21 17t34.5 7.5v-571h-71v500z" />
    <glyph glyph-name="uacute" unicode="&#xfa;" horiz-adv-x="326" 
d="M284 786q0 -32 -17.5 -50t-35.5 -20l-18 -2q-3 0 -7.5 -0.5t-17 -4.5t-22 -10.5t-17 -21t-7.5 -34.5q0 40 14.5 69.5t35.5 43t42 21t36 8.5zM70 71q0 -3 0.5 -7.5t4.5 -17t10.5 -22t21.5 -17t35 -7.5q-40 0 -69 14.5t-42.5 35.5t-21 42.5t-8.5 35.5l-1 15v428
q31 0 48.5 -17.5t19.5 -35.5l2 -18v-429zM213 500q0 3 0.5 7.5t4.5 17t10.5 22t21 17t34.5 7.5v-571h-71v500z" />
    <glyph glyph-name="ucircumflex" unicode="&#xfb;" horiz-adv-x="326" 
d="M143 714l72 -71h-36l-36 36l-36 -36h-35zM72 71q0 -3 0.5 -7.5t4.5 -17t10.5 -22t21 -17t34.5 -7.5q-40 0 -69.5 14.5t-43 35.5t-21 42.5t-8.5 35.5l-1 15v428q32 0 50 -17.5t20 -35.5l2 -18v-429zM215 500q0 3 0.5 7.5t4.5 17t10.5 22t21 17t34.5 7.5v-571h-71v500z" />
    <glyph glyph-name="udieresis" unicode="&#xfc;" horiz-adv-x="325" 
d="M34 643q-14 0 -24 10.5t-10 25.5q0 14 10 24.5t24 10.5q15 0 25.5 -10.5t10.5 -24.5q0 -15 -10.5 -25.5t-25.5 -10.5zM249 643q-15 0 -25.5 10.5t-10.5 25.5q0 14 10.5 24.5t25.5 10.5q14 0 24.5 -10.5t10.5 -24.5q0 -15 -10.5 -25.5t-24.5 -10.5zM70 71q0 -3 0.5 -7.5
t4.5 -17t10.5 -22t21.5 -17t35 -7.5q-40 0 -69 14.5t-42.5 35.5t-21 42.5t-8.5 35.5l-1 15v428q31 0 48.5 -17.5t19.5 -35.5l2 -18v-429zM213 500q0 3 0.5 7.5t4.5 17t10.5 22t21 17t34.5 7.5v-571h-71v500z" />
    <glyph glyph-name="yacute" unicode="&#xfd;" horiz-adv-x="329" 
d="M144 714q-3 0 -7.5 -0.5t-17 -4.5t-22 -10.5t-17 -21t-7.5 -34.5q0 40 14.5 69.5t35.5 43t42 21t35 8.5l15 1q0 -32 -17.5 -50t-35.5 -20zM73 -213q0 -3 0.5 -8t4.5 -17t10.5 -21.5t21 -17.5t34.5 -8q-40 0 -69.5 14.5t-43 35.5t-21 42.5t-8.5 36.5l-1 14q32 0 50 -18
t20 -36zM215 500q0 3 0.5 7.5t4.5 17t10.5 22t21.5 17t35 7.5v-713q0 -6 -1 -15.5t-8.5 -34t-21 -43.5t-43 -34.5t-69.5 -15.5q32 0 49.5 18t19.5 36l2 18v713zM144 0q-40 0 -69.5 14.5t-43 35.5t-21 42.5t-8.5 35.5l-1 15v428q32 0 50 -17.5t20 -35.5l2 -18v-429
q0 -3 0.5 -7.5t4.5 -17t10.5 -22t21 -17t34.5 -7.5z" />
    <glyph glyph-name="thorn" unicode="&#xfe;" horiz-adv-x="328" 
d="M146 571q40 0 69 -14.5t42.5 -35.5t21 -42t8.5 -35l1 -15v-286q0 -6 -1 -15.5t-8.5 -34t-21 -43.5t-42.5 -34.5t-69 -15.5q32 0 49.5 18t19.5 36l2 17v429q0 3 -0.5 7.5t-4.5 17t-10.5 22t-21 17t-34.5 7.5zM74 786v-232q36 17 72 17q-32 0 -50 -17.5t-20 -35.5l-2 -18
v-429v-356h-71v1142q32 0 49.5 -17.5t19.5 -35.5z" />
    <glyph glyph-name="ydieresis" unicode="&#xff;" 
d="M37 643q-15 0 -25.5 10.5t-10.5 25.5q0 14 10.5 24.5t25.5 10.5t25.5 -10.5t10.5 -24.5q0 -15 -10.5 -25.5t-25.5 -10.5zM251 643q-15 0 -25.5 10.5t-10.5 25.5q0 14 10.5 24.5t25.5 10.5t25.5 -10.5t10.5 -24.5q0 -15 -10.5 -25.5t-25.5 -10.5zM215 500q0 3 0.5 7.5
t4.5 17t10.5 22t21.5 17t35 7.5v-713q0 -6 -1 -15.5t-8.5 -34t-21 -43.5t-43 -34.5t-69.5 -15.5q32 0 49.5 18t19.5 36l2 18v713zM144 0q-40 0 -69.5 14.5t-43 35.5t-21 42.5t-8.5 35.5l-1 15v428q32 0 50 -17.5t20 -35.5l2 -18v-429q0 -3 0.5 -7.5t4.5 -17t10.5 -22t21 -17
t34.5 -7.5zM73 -213q0 -3 0.5 -8t4.5 -17t10.5 -21.5t21 -17.5t34.5 -8q-40 0 -69.5 14.5t-43 35.5t-21 42.5t-8.5 36.5l-1 14q32 0 50 -18t20 -36z" />
    <glyph glyph-name="OE" unicode="&#x152;" horiz-adv-x="540" 
d="M71 71q0 -3 0.5 -7.5t4.5 -17t10.5 -22t21.5 -17t35 -7.5q-40 0 -69.5 14.5t-43 35.5t-21 42.5t-8.5 35.5l-1 15v571q0 6 1 15.5t8.5 34t21 43.5t43 34.5t69.5 15.5q-32 0 -50 -17.5t-20 -35.5l-2 -18v-715zM500 143q0 -6 -1 -15.5t-8.5 -34t-21 -43.5t-43 -34.5
t-69.5 -15.5q32 0 49.5 18t19.5 36l2 17q0 3 0.5 8t4.5 17t10.5 21.5t21.5 17.5t35 8zM143 857q29 0 55.5 -11t39.5 -22l12 -11q5 5 13.5 12.5t36.5 19.5t57 12q-32 0 -49.5 -17.5t-19.5 -35.5l-2 -18v-715q0 -3 0.5 -7.5t4.5 -17t10.5 -22t21 -17t34.5 -7.5q-29 0 -55.5 11
t-39.5 22l-12 11q-5 -5 -13.5 -12.5t-36.5 -19.5t-57 -12q32 0 49.5 18t19.5 36l2 17v715q0 3 -0.5 7.5t-4.5 17t-10.5 22t-21 17t-34.5 7.5zM357 286q32 0 49.5 18t19.5 36l2 17v429q0 3 -0.5 7.5t-4.5 17t-10.5 22t-21 17t-34.5 7.5q40 0 69.5 -14.5t43 -35.5t21 -42.5
t8.5 -36.5l1 -14v-285q0 -6 -1 -15.5t-8.5 -34t-21 -43.5t-43 -34.5t-69.5 -15.5z" />
    <glyph glyph-name="oe" unicode="&#x153;" horiz-adv-x="528" 
d="M500 143q0 -6 -1 -15.5t-8.5 -34t-21 -43.5t-43 -34.5t-69.5 -15.5q32 0 49.5 18t19.5 36l2 17q0 3 0.5 8t4.5 17t10.5 21.5t21.5 17.5t35 8zM357 286q32 0 49.5 18t19.5 36l2 17v143q0 3 -0.5 7.5t-4.5 17t-10.5 22t-21 17t-34.5 7.5q40 0 69.5 -14.5t43 -35.5t21 -42
t8.5 -35l1 -15q0 -6 -1 -15.5t-8.5 -34t-21 -43.5t-43 -34.5t-69.5 -15.5zM143 571q29 0 55.5 -10.5t39.5 -21.5l12 -11q5 5 13.5 12t36.5 19t57 12q-32 0 -49.5 -17.5t-19.5 -35.5l-2 -18v-429q0 -3 0.5 -7.5t4.5 -17t10.5 -22t21 -17t34.5 -7.5q-29 0 -55.5 11t-39.5 22
l-12 11q-5 -5 -13.5 -12.5t-36.5 -19.5t-57 -12q32 0 49.5 18t19.5 36l2 17v429q0 3 -0.5 7.5t-4.5 17t-10.5 22t-21 17t-34.5 7.5zM71 71q0 -3 0.5 -7.5t4.5 -17t10.5 -22t21.5 -17t35 -7.5q-40 0 -69.5 14.5t-43 35.5t-21 42.5t-8.5 35.5l-1 15v286q0 6 1 15.5t8.5 34
t21 43t43 34t69.5 15.5q-32 0 -50 -17.5t-20 -35.5l-2 -18v-429z" />
    <glyph glyph-name="Scaron" unicode="&#x160;" horiz-adv-x="326" 
d="M214 1000l-71 -71l-72 71h36l36 -36l35 36h36zM143 429q40 0 69 -14.5t42.5 -35.5t21 -42.5t8.5 -36.5l1 -14v-143q0 -6 -1 -15.5t-8.5 -34t-21 -43.5t-42.5 -34.5t-69 -15.5q32 0 49.5 18t19.5 36l2 17v286q0 3 -0.5 8t-4.5 17t-10.5 21.5t-21 17.5t-34.5 8zM71 71
q0 -3 0.5 -7.5t4.5 -17t10.5 -22t21.5 -17t35 -7.5q-40 0 -69.5 14.5t-43 35.5t-21 42.5t-8.5 35.5l-1 15q32 0 49.5 -18t19.5 -36zM71 500q0 -3 0.5 -7.5t4.5 -17t10.5 -22t21.5 -17t35 -7.5q-40 0 -69.5 14.5t-43 35.5t-21 42t-8.5 35l-1 15v143q0 6 1 15.5t8.5 34
t21 43.5t43 34.5t69.5 15.5q-32 0 -50 -17.5t-20 -35.5l-2 -18v-286zM214 786q0 3 -0.5 7.5t-4.5 17t-10.5 22t-21 17t-34.5 7.5q40 0 69 -14.5t42.5 -35.5t21 -42.5t8.5 -36.5l1 -14q-32 0 -49.5 18t-19.5 36z" />
    <glyph glyph-name="scaron" unicode="&#x161;" horiz-adv-x="312" 
d="M70 71q0 -3 0.5 -7.5t4.5 -17t10.5 -22t21 -17t34.5 -7.5q-40 0 -69 14.5t-42.5 35.5t-21 42.5t-8.5 35.5l-1 15q32 0 49.5 -18t19.5 -36zM212 500q0 3 -0.5 7.5t-4.5 17t-10.5 22t-21 17t-34.5 7.5q40 0 69.5 -14.5t43 -35.5t21 -42t8.5 -35l1 -15q-32 0 -50 17.5
t-20 35.5zM70 357q0 -3 0.5 -7.5t4.5 -17t10.5 -22t21 -17t34.5 -7.5q-40 0 -69 14.5t-42.5 35.5t-21 42.5t-8.5 35.5l-1 15q0 6 1 15.5t8.5 34t21 43t42.5 34t69 15.5q-32 0 -49.5 -17.5t-19.5 -35.5l-2 -18v-143zM141 286q40 0 69.5 -14.5t43 -35.5t21 -42.5t8.5 -35.5
l1 -15q0 -6 -1 -15.5t-8.5 -34t-21 -43.5t-43 -34.5t-69.5 -15.5q32 0 49.5 18t19.5 36l2 17v143q0 3 -0.5 8t-4.5 17t-10.5 21.5t-21 17.5t-34.5 8zM212 714l-71 -71l-71 71h35l36 -35l36 35h35z" />
    <glyph glyph-name="Ydieresis" unicode="&#x178;" 
d="M71 71q0 -3 0.5 -7.5t4.5 -17t10.5 -22t21.5 -17t35 -7.5q-40 0 -69.5 14.5t-43 35.5t-21 42.5t-8.5 35.5l-1 15q32 0 49.5 -18t19.5 -36zM143 286q-40 0 -69.5 14.5t-43 35.5t-21 42.5t-8.5 35.5l-1 15v428q32 0 49.5 -17.5t19.5 -35.5l2 -18v-429q0 -3 0.5 -7.5
t4.5 -17t10.5 -22t21.5 -17t35 -7.5zM214 786q0 3 0.5 7.5t4.5 17t10.5 22t21 17t34.5 7.5v-714q0 -6 -1 -15.5t-8.5 -34t-21 -43.5t-42.5 -34.5t-69 -15.5q32 0 49.5 18t19.5 36l2 17v715zM35 929q-14 0 -24.5 10.5t-10.5 24.5q0 15 10.5 25.5t24.5 10.5q15 0 25.5 -10.5
t10.5 -25.5q0 -14 -10.5 -24.5t-25.5 -10.5zM250 929q-15 0 -25.5 10.5t-10.5 24.5q0 15 10.5 25.5t25.5 10.5q14 0 24.5 -10.5t10.5 -25.5q0 -14 -10.5 -24.5t-24.5 -10.5z" />
    <glyph glyph-name="Zcaron" unicode="&#x17d;" horiz-adv-x="300" 
d="M214 1000l-71 -71l-72 71h36l36 -36l36 36h35zM71 786q-3 0 -7.5 0.5t-17 4.5t-22 10.5t-17 21t-7.5 34.5q6 0 15.5 -1t34 -8.5t43.5 -21t34.5 -43t15.5 -69.5q0 32 -18 50t-36 20zM143 571q32 0 49.5 18t19.5 36l2 18q0 3 0.5 7.5t4.5 17t10.5 22t21.5 17t35 7.5
q0 -6 -1 -15.5t-8.5 -34t-21 -43.5t-43 -34.5t-69.5 -15.5zM214 71q0 3 0.5 8t4.5 17t10.5 21.5t21.5 17.5t35 8q0 -6 -1 -15.5t-8.5 -34t-21 -43.5t-43 -34.5t-69.5 -15.5q32 0 49.5 18t19.5 36zM0 429q0 6 1 15.5t8.5 34t21 43t43 34t69.5 15.5q-32 0 -50 -17.5t-20 -35.5
l-2 -18v-500h-71v429z" />
    <glyph glyph-name="zcaron" unicode="&#x17e;" horiz-adv-x="309" 
d="M71 500q-3 0 -7.5 0.5t-17 4.5t-22 10.5t-17 21t-7.5 34.5q6 0 15.5 -1t34 -8.5t43.5 -21t34.5 -42.5t15.5 -69q0 32 -18 49.5t-36 19.5zM0 143q0 6 1 15.5t8.5 34t21 43.5t43 34.5t69.5 15.5q-32 0 -50 -18t-20 -36l-2 -18v-214h-71v143zM214 71q0 3 0.5 8t4.5 17
t10.5 21.5t21.5 17.5t35 8q0 -6 -1 -15.5t-8.5 -34t-21 -43.5t-43 -34.5t-69.5 -15.5q32 0 49.5 18t19.5 36zM143 286q32 0 49.5 18t19.5 36l2 17q0 3 0.5 8t4.5 17t10.5 21.5t21.5 17.5t35 8q0 -6 -1 -15.5t-8.5 -34t-21 -43.5t-43 -34.5t-69.5 -15.5zM214 714l-71 -71
l-72 71h36l36 -35l36 35h35z" />
    <glyph glyph-name="florin" unicode="&#x192;" horiz-adv-x="427" 
d="M306 857q-20 0 -36 -7.5t-24.5 -17.5t-14 -20.5t-7.5 -17.5l-2 -8l-73 -417h140v-24h-145l-48 -274q-6 -32 -27 -49.5t-39 -19.5l-18 -2l61 345h-69v24h73l61 345q1 6 3.5 15.5t14.5 34t29 43.5t49 34.5t72 15.5zM306 857q7 0 17 -1t33 -9t39 -21.5t26 -42.5t3 -69
q-20 0 -33.5 7.5t-18.5 18t-7 21t-1 17.5l1 8q3 19 -1.5 33.5t-12.5 21.5t-19 11t-16.5 4.5t-9.5 0.5z" />
    <glyph glyph-name="circumflex" unicode="&#x2c6;" horiz-adv-x="261" 
d="M216 713h-35l-36 36l-36 -36h-35l71 71z" />
    <glyph glyph-name="tilde" unicode="&#x2dc;" horiz-adv-x="183" 
d="M36 821q17 -37 35 0q-2 -5 -5 -10t-11 -14t-16 -11t-18.5 6t-20.5 29q5 11 10.5 15t10 2t8 -5.5t5.5 -7.5zM71 821l1 3l4 6t5 7l6 8t7.5 7t8.5 4t9 0t10 -4.5t10.5 -11.5t10.5 -19q-5 -11 -10.5 -15t-10 -2t-8 5.5t-5.5 7.5l-2 4q-3 7 -6.5 11.5t-6 5.5t-5.5 0.5t-5.5 -2
t-5 -4t-3.5 -4.5t-3 -4z" />
    <glyph glyph-name="endash" unicode="&#x2013;" horiz-adv-x="330" 
d="M0 257v57h286v-57h-286z" />
    <glyph glyph-name="emdash" unicode="&#x2014;" horiz-adv-x="471" 
d="M0 255v57h429v-57h-429z" />
    <glyph glyph-name="quoteleft" unicode="&#x2018;" horiz-adv-x="114" 
d="M71 714q-3 0 -7.5 0.5t-17 4.5t-22 10.5t-17 21.5t-7.5 35v71q3 0 7.5 -0.5t17 -4.5t22 -10.5t17 -21t7.5 -34.5v-72z" />
    <glyph glyph-name="quoteright" unicode="&#x2019;" horiz-adv-x="124" 
d="M71 857v-71q0 -32 -17.5 -50t-35.5 -20l-18 -2v72q0 32 18 49.5t36 19.5z" />
    <glyph glyph-name="quotesinglbase" unicode="&#x201a;" horiz-adv-x="182" 
d="M0 -70q32 0 49.5 17.5t19.5 34.5l2 18q0 3 0.5 7.5t4.5 17t10.5 22t21 17t34.5 7.5q0 -6 -1 -15.5t-8.5 -33.5t-21 -43t-42.5 -34t-69 -15z" />
    <glyph glyph-name="quotedblleft" unicode="&#x201c;" horiz-adv-x="257" 
d="M0 857q3 0 7.5 -0.5t17 -4.5t22 -10.5t17 -21t7.5 -34.5v-72q-3 0 -7.5 0.5t-17 4.5t-22 10.5t-17 21.5t-7.5 35v71zM143 857q3 0 7.5 -0.5t17 -4.5t22 -10.5t17 -21t7.5 -34.5v-72q-3 0 -7.5 0.5t-17 4.5t-22 10.5t-17 21.5t-7.5 35v71z" />
    <glyph glyph-name="quotedblright" unicode="&#x201d;" horiz-adv-x="266" 
d="M143 786q0 32 17.5 49.5t35.5 19.5l18 2v-71q0 -32 -18 -50t-36 -20l-17 -2v72zM0 786q0 32 18 49.5t36 19.5l17 2v-71q0 -32 -17.5 -50t-35.5 -20l-18 -2v72z" />
    <glyph glyph-name="quotedblbase" unicode="&#x201e;" horiz-adv-x="325" 
d="M71 0q0 3 0.5 7.5t4.5 17t10.5 22t21 17t34.5 7.5q0 -6 -1 -15.5t-8.5 -33.5t-21 -43t-42.5 -34t-69 -15q32 0 49.5 17.5t19.5 34.5zM213 0q0 3 0.5 7.5t4.5 17t10.5 22t21.5 17t35 7.5q0 -6 -1 -15.5t-8.5 -33.5t-21 -43t-43 -34t-69.5 -15q32 0 49.5 17.5t19.5 34.5z
" />
    <glyph glyph-name="bullet" unicode="&#x2022;" horiz-adv-x="183" 
d="M143 286q0 -30 -21 -51t-51 -21q-29 0 -50 21t-21 51q0 29 21 50t50 21q30 0 51 -21t21 -50z" />
    <glyph glyph-name="ellipsis" unicode="&#x2026;" horiz-adv-x="403" 
d="M37 71q15 0 25.5 -10.5t10.5 -24.5q0 -15 -10.5 -25.5t-25.5 -10.5t-25.5 10.5t-10.5 25.5q0 14 10.5 24.5t25.5 10.5zM180 71q15 0 25.5 -10.5t10.5 -24.5q0 -15 -10.5 -25.5t-25.5 -10.5t-25.5 10.5t-10.5 25.5q0 14 10.5 24.5t25.5 10.5zM323 71q15 0 25.5 -10.5
t10.5 -24.5q0 -15 -10.5 -25.5t-25.5 -10.5t-25.5 10.5t-10.5 25.5q0 14 10.5 24.5t25.5 10.5z" />
    <glyph glyph-name="perthousand" unicode="&#x2030;" horiz-adv-x="439" 
d="M215 143q4 0 9.5 -0.5t17 -4.5t21 -11t16.5 -21.5t7 -34.5q0 -19 -7 -33.5t-16.5 -21.5t-21 -11t-17 -4.5t-9.5 -0.5q5 0 11.5 1.5t15 10.5t8.5 24v71q0 15 -8.5 24t-15 10.5t-11.5 1.5zM214 143q-5 0 -11.5 -1.5t-15 -10.5t-8.5 -24v-71q0 -15 8.5 -24t15 -10.5
t11.5 -1.5q-4 0 -9.5 0.5t-17 4.5t-21 11t-16.5 21.5t-7 33.5q0 20 7 34.5t16.5 21.5t21 11t17 4.5t9.5 0.5zM358 143q4 0 9.5 -0.5t17 -4.5t21 -11t16.5 -21.5t7 -34.5q0 -19 -7 -33.5t-16.5 -21.5t-21 -11t-17 -4.5t-9.5 -0.5q4 0 10.5 1.5t15.5 10.5t9 24v71q0 15 -9 24
t-15.5 10.5t-10.5 1.5zM357 143q-5 0 -11.5 -1.5t-15.5 -10.5t-9 -24v-71q0 -15 9 -24t15.5 -10.5t11.5 -1.5q-4 0 -9.5 0.5t-17 4.5t-21 11t-16.5 21.5t-7 33.5q0 20 7 34.5t16.5 21.5t21 11t17 4.5t9.5 0.5zM72 429q5 0 11.5 1.5t15 10t8.5 23.5v72q0 15 -8.5 23.5t-15 10
t-11.5 1.5q4 0 9.5 -0.5t17 -4.5t21 -11t16.5 -21.5t7 -33.5t-7 -33.5t-16.5 -21.5t-21 -11t-17 -4.5t-9.5 -0.5zM71 429q-4 0 -9.5 0.5t-17 4.5t-21 11t-16.5 21.5t-7 33.5t7 33.5t16.5 21.5t21 11t17 4.5t9.5 0.5q-5 0 -11.5 -1.5t-15 -10t-8.5 -23.5v-72q0 -15 8.5 -23.5
t15 -10t11.5 -1.5zM0 143q0 6 1 15.5t8.5 34t21 43.5t43 34.5t69.5 15.5q-32 0 -50 -18t-20 -36l-2 -18v-143q0 -3 -0.5 -7.5t-4.5 -17t-10.5 -22t-21 -17t-34.5 -7.5v143zM286 429q0 -6 -1 -15.5t-8.5 -34t-21 -43.5t-43 -34.5t-69.5 -15.5q32 0 49.5 18t19.5 36l2 17v143
q0 32 18 49.5t36 19.5l18 2v-142z" />
    <glyph glyph-name="guilsinglleft" unicode="&#x2039;" horiz-adv-x="184" 
d="M143 429v-72l-72 -71l72 -72v-71l-143 143z" />
    <glyph glyph-name="guilsinglright" unicode="&#x203a;" horiz-adv-x="183" 
d="M0 143v71l71 72l-71 71v72l143 -143z" />
    <glyph glyph-name="Euro" unicode="&#x20ac;" horiz-adv-x="380" 
d="M286 500q0 3 -0.5 7.5t-4.5 17t-10.5 22t-21 17t-34.5 7.5q40 0 69 -14.5t42.5 -35.5t21 -42t8.5 -35l1 -15q-32 0 -49.5 17.5t-19.5 35.5zM143 71q0 -3 0.5 -7.5t4.5 -17t10.5 -22t21.5 -17t35 -7.5q-40 0 -69.5 14.5t-43 35.5t-21 42.5t-8.5 35.5l-1 15v59h-72v24h72
v119h-72v24h72v60q0 6 1 15.5t8.5 34t21 43t43 34t69.5 15.5q-32 0 -50 -17.5t-20 -35.5l-2 -18v-131h143v-24h-143v-119h143v-24h-143v-131zM286 71q0 3 0.5 8t4.5 17t10.5 21.5t21 17.5t34.5 8q0 -6 -1 -15.5t-8.5 -34t-21 -43.5t-42.5 -34.5t-69 -15.5q32 0 49.5 18
t19.5 36z" />
    <glyph glyph-name="trademark" unicode="&#x2122;" horiz-adv-x="326" 
d="M119 762q14 0 19 -9q15 9 28 9q-3 0 -7 -1t-10 -7t-6 -16v-167h-24v191zM238 762q6 0 14.5 -2t21 -13.5t12.5 -32.5v-143h-24v167q0 10 -6 16t-10.5 7t-7.5 1zM167 762q9 0 18 -4t13 -8l4 -3q14 15 36 15q-11 0 -17 -6t-7 -12v-6v-167h-24v167q0 24 -23 24zM24 595
q0 -6 2 -10.5t5.5 -7t6.5 -4t6 -1.5l3 -1q-5 0 -13.5 2t-21 13.5t-12.5 32.5v238h2.5t5.5 -1.5t7.5 -3.5t6 -7t2.5 -12v-238zM71 595q0 24 24 24q0 -21 -12 -32.5t-20.5 -13.5t-14.5 -2l2 1q3 0 5.5 0.5t5.5 2.5t5 4.5t3.5 6.5t1.5 9zM71 762h2.5t5.5 -1.5t7.5 -3.5t6 -7
t2.5 -12q-21 0 -32.5 12.5t-13 20.5t-1.5 14q0 -23 23 -23z" />
  </font>
</defs>
</svg>
